<svg width="31" height="30" viewBox="0 0 31 30" fill="none" xmlns="http://www.w3.org/2000/svg">
<rect x="0.5" y="0.5" width="29.4348" height="29" rx="4.5" fill="#FB4D3D" stroke="#FB4D3D"/>
<path d="M19.119 18.138C19.3244 18.3713 19.427 18.628 19.427 18.908C19.427 19.2253 19.301 19.5053 19.049 19.748C18.8064 19.9813 18.531 20.098 18.223 20.098C17.8964 20.098 17.6117 19.958 17.369 19.678L14.961 16.794L12.511 19.678C12.2684 19.958 11.9884 20.098 11.671 20.098C11.363 20.098 11.083 19.9767 10.831 19.734C10.5884 19.4913 10.467 19.2113 10.467 18.894C10.467 18.6233 10.565 18.3713 10.761 18.138L13.449 15.03L10.831 11.992C10.6257 11.7493 10.523 11.4973 10.523 11.236C10.523 10.9187 10.6444 10.6433 10.887 10.41C11.139 10.1673 11.4237 10.046 11.741 10.046C12.0677 10.046 12.3524 10.186 12.595 10.466L14.961 13.266L17.313 10.466C17.537 10.186 17.8124 10.046 18.139 10.046C18.4564 10.046 18.7364 10.1673 18.979 10.41C19.231 10.6433 19.357 10.9187 19.357 11.236C19.357 11.5067 19.259 11.7587 19.063 11.992L16.445 15.03L19.119 18.138Z" fill="white"/>
</svg>
