<svg width="344" height="378" viewBox="0 0 344 378" fill="none" xmlns="http://www.w3.org/2000/svg">
<path d="M197.37 0.959381C189.22 2.81125 184.42 5.54272 176.97 12.5335C169.22 19.802 167.82 20.3575 152.42 22.2557C100.67 28.6446 53.4705 57.1168 25.6205 98.7835C11.6205 119.709 2.67046 144.895 0.370462 169.895C-0.379538 178.043 0.0704616 196.191 1.17046 203.506C7.27046 244.154 28.3705 279.385 61.8205 304.802C66.4705 308.367 77.4205 315.635 77.4205 315.172C77.4205 315.08 75.6705 313.737 73.5705 312.209C48.5705 294.293 27.6205 265.589 18.6705 236.978C7.02046 199.941 10.8205 161.7 29.4205 127.858C48.6705 92.8575 82.3205 66.9316 123.17 55.589C135.97 52.0242 155.57 49.4779 162.17 50.4501C167.77 51.3298 172.02 53.5057 176.67 57.9038C183.77 64.5705 189.17 67.6724 196.87 69.5242C203.87 71.2372 213.37 70.6353 220.22 68.1816C226.72 65.8205 233.32 60.9594 237.37 55.6353L239.47 52.8112H224.82H210.12L204.77 44.339C201.82 39.6631 199.42 35.589 199.42 35.3112C199.42 35.0335 201.77 31.0983 204.62 26.5612L209.82 18.3205L224.62 18.089L239.42 17.8575L237.57 15.3112C229.02 3.50568 212.37 -2.46652 197.37 0.959381Z" fill="#67A277"/>
<path d="M268.171 63.7835C268.471 64.0613 270.271 65.4965 272.221 66.978C290.321 80.9131 304.471 97.3484 314.771 116.469C333.971 151.932 337.071 193.691 323.221 230.867C310.021 266.422 282.621 295.728 246.921 312.487C228.171 321.284 209.771 326.006 188.171 327.58C179.771 328.228 173.171 325.774 166.921 319.802C157.921 311.145 149.121 307.395 137.821 307.395C132.071 307.395 127.721 308.135 123.021 309.895C116.771 312.256 110.121 317.209 106.321 322.348L104.371 325.034H119.071H133.771L139.071 333.506C142.021 338.182 144.421 342.256 144.421 342.487C144.421 342.765 142.071 346.7 139.221 351.284L133.971 359.524L119.221 359.756L104.421 359.987L106.221 362.441C114.421 373.784 130.021 379.756 144.521 377.163C153.021 375.635 158.171 372.95 165.921 366.006C169.071 363.182 172.371 360.404 173.221 359.848C176.021 358.089 180.021 356.932 185.921 356.284C203.221 354.293 217.771 350.913 232.671 345.404C266.521 332.904 294.821 311.561 315.071 283.321C330.071 262.395 338.871 240.358 342.721 214.154C343.821 206.608 344.021 184.802 343.021 177.348C338.871 145.959 326.421 118.552 305.721 94.9409C301.421 90.0335 289.971 79.2465 284.671 75.1261C279.371 71.0057 266.421 62.1169 268.171 63.7835Z" fill="#D9BD30"/>
<path d="M124.971 114.663C118.821 116.191 111.871 121.006 107.971 126.422C106.921 127.811 101.971 136.006 96.9206 144.663C89.6706 157.024 87.8706 160.497 88.2706 161.098C88.7206 161.793 95.6206 161.839 171.921 161.839C247.921 161.839 255.121 161.793 255.571 161.098C255.971 160.497 254.221 157.163 247.421 145.589C242.671 137.441 237.771 129.339 236.571 127.487C232.571 121.422 225.371 116.237 218.671 114.617C214.371 113.598 129.121 113.598 124.971 114.663Z" fill="#666665"/>
<path d="M62.6704 152.071C59.9204 153.182 58.4204 155.033 58.4204 157.302C58.4204 159.617 59.7204 161.191 62.6704 162.348C65.2204 163.321 75.9204 163.274 78.2204 162.256C83.7204 159.802 83.7204 154.617 78.2204 152.302C75.6704 151.237 65.1204 151.098 62.6704 152.071Z" fill="#666665"/>
<path d="M265.621 152.302C261.421 154.061 260.221 157.441 262.771 160.265C264.871 162.533 266.621 162.996 273.421 162.996C280.071 162.996 282.071 162.533 284.171 160.404C286.721 157.858 285.121 153.598 281.071 152.071C278.471 151.052 268.221 151.237 265.621 152.302Z" fill="#666665"/>
<path d="M93.8203 166.237C82.4703 168.043 73.8203 175.172 70.5203 185.45C69.5203 188.598 69.0703 219.108 69.9203 224.848C71.3203 233.922 77.6703 241.191 86.9203 244.339L90.6703 245.635H172.17H253.67L257.07 244.385C265.17 241.376 270.67 235.821 273.27 228.043C274.07 225.543 274.17 223.413 274.17 206.746C274.17 190.08 274.07 187.95 273.27 185.496C270.22 176.33 263.42 169.941 253.42 166.885C250.82 166.052 247.02 166.006 173.42 165.959C130.92 165.913 95.1203 166.052 93.8203 166.237ZM90.6703 174.941C90.9703 175.126 91.5703 175.821 92.0203 176.515C92.5703 177.256 93.8703 178.043 95.5203 178.598C98.0703 179.385 101.57 179.432 172.17 179.432C245.02 179.432 246.22 179.432 248.62 178.506C250.27 177.904 251.37 177.117 251.92 176.191C253.37 173.737 256.42 174.246 256.42 176.978C256.42 177.996 255.87 178.876 254.52 180.126C252.47 182.024 249.47 183.089 243.92 183.83C241.97 184.108 212.57 184.293 171.42 184.246C97.7203 184.246 97.4203 184.246 92.3703 182.071C88.8203 180.496 87.4203 179.015 87.4203 176.793C87.4203 174.987 89.2203 173.969 90.6703 174.941ZM87.6703 185.172C92.2703 187.163 98.2203 191.515 105.12 197.904C113.07 205.219 113.17 205.728 106.97 208.598C100.27 211.746 89.9203 209.709 81.0203 203.506C73.4203 198.182 73.4703 189.154 81.1703 184.709C83.1703 183.552 84.1703 183.598 87.6703 185.172ZM262.37 184.524C264.37 185.45 267.32 188.784 267.92 190.728C269.92 197.348 266.22 202.626 256.62 206.978C252.12 209.015 247.42 210.219 243.77 210.219C240.87 210.219 236.42 208.83 234.12 207.209C231.22 205.126 231.62 204.339 238.62 197.904C245.47 191.654 251.62 187.163 256.17 185.172C259.57 183.645 260.42 183.552 262.37 184.524ZM223.42 219.756C231.47 221.422 237.77 227.117 238.72 233.506C238.97 235.265 238.87 235.867 238.17 236.608C237.27 237.534 236.42 237.534 171.87 237.534C99.3703 237.534 104.92 237.765 104.92 234.524C104.92 230.219 108.97 224.756 114.17 221.978C119.77 218.969 118.17 219.061 171.57 219.061C213.67 219.015 220.42 219.108 223.42 219.756Z" fill="#666665"/>
<path d="M73.9705 248.506C73.8705 254.802 74.4205 258.367 75.7205 260.959C77.1205 263.691 78.1705 263.922 89.3705 263.922H99.3205L100.87 262.719C102.82 261.237 103.92 257.904 103.92 253.645V250.496H98.3205C95.2205 250.496 91.1205 250.172 89.1705 249.802C85.1705 249.015 78.4205 246.052 76.0705 244.015C75.1705 243.228 74.3705 242.626 74.2205 242.626C74.1205 242.626 73.9705 245.265 73.9705 248.506Z" fill="#666665"/>
<path d="M267.171 244.293C264.421 246.515 258.871 248.969 254.671 249.802C252.771 250.172 248.621 250.496 245.471 250.496H239.771L240.021 254.802C240.271 259.432 241.071 261.376 243.221 262.95C244.471 263.876 245.171 263.922 254.721 263.922C264.771 263.922 264.871 263.922 266.321 262.765C268.971 260.682 269.571 258.552 269.721 250.126C269.821 246.006 269.721 242.626 269.521 242.626C269.321 242.672 268.271 243.413 267.171 244.293Z" fill="#666665"/>
</svg>
