<svg width="352" height="385" viewBox="0 0 352 385" fill="none" xmlns="http://www.w3.org/2000/svg">
<g filter="url(#filter0_d_1124_4595)">
<path d="M201.37 0.959381C193.22 2.81125 188.42 5.54272 180.97 12.5335C173.22 19.802 171.82 20.3575 156.42 22.2557C104.67 28.6446 57.4705 57.1168 29.6205 98.7835C15.6205 119.709 6.67046 144.895 4.37046 169.895C3.62046 178.043 4.07046 196.191 5.17046 203.506C11.2705 244.154 32.3705 279.385 65.8205 304.802C70.4705 308.367 81.4205 315.635 81.4205 315.172C81.4205 315.08 79.6705 313.737 77.5705 312.209C52.5705 294.293 31.6205 265.589 22.6705 236.978C11.0205 199.941 14.8205 161.7 33.4205 127.858C52.6705 92.8575 86.3205 66.9316 127.17 55.589C139.97 52.0242 159.57 49.4779 166.17 50.4501C171.77 51.3298 176.02 53.5057 180.67 57.9038C187.77 64.5705 193.17 67.6724 200.87 69.5242C207.87 71.2372 217.37 70.6353 224.22 68.1816C230.72 65.8205 237.32 60.9594 241.37 55.6353L243.47 52.8112H228.82H214.12L208.77 44.339C205.82 39.6631 203.42 35.589 203.42 35.3112C203.42 35.0335 205.77 31.0983 208.62 26.5612L213.82 18.3205L228.62 18.089L243.42 17.8575L241.57 15.3112C233.02 3.50568 216.37 -2.46652 201.37 0.959381Z" fill="#67A277"/>
<path d="M201.592 1.93451L201.593 1.93427C216.228 -1.40823 232.461 4.43793 240.761 15.8978L240.761 15.899L241.48 16.8878L228.605 17.0891L213.805 17.3206L213.264 17.3291L212.975 17.7868L207.775 26.0276L207.774 26.0293C206.346 28.3023 205.041 30.4275 204.092 32.022C203.619 32.8182 203.229 33.4884 202.957 33.9809C202.822 34.2256 202.709 34.4372 202.628 34.603C202.589 34.6844 202.549 34.7691 202.518 34.8486C202.502 34.8879 202.483 34.9397 202.466 34.9977C202.455 35.0375 202.42 35.1588 202.42 35.3112C202.42 35.4653 202.456 35.588 202.467 35.6264C202.484 35.6839 202.503 35.7356 202.518 35.775C202.55 35.8548 202.589 35.9405 202.63 36.0237C202.712 36.193 202.826 36.4102 202.965 36.6625C203.243 37.1703 203.642 37.8622 204.129 38.6849C205.103 40.3324 206.446 42.5282 207.925 44.8726L207.925 44.873L213.275 53.3452L213.569 53.8112H214.12H228.82H241.481L240.575 55.0299C240.574 55.0312 240.572 55.0326 240.571 55.034C236.639 60.2011 230.201 64.9451 223.881 67.2411C217.206 69.6313 207.907 70.2167 201.108 68.5529L201.104 68.5519C193.608 66.749 188.357 63.7498 181.356 57.176C181.356 57.1756 181.355 57.1752 181.355 57.1748L180.67 57.9038C176.02 53.5057 171.77 51.3298 166.17 50.4501L201.592 1.93451ZM201.592 1.93451C197.585 2.845 194.445 3.96121 191.402 5.689C188.349 7.42188 185.352 9.79312 181.655 13.2627L181.655 13.2629M201.592 1.93451L181.655 13.2629M181.655 13.2629C177.786 16.8913 175.374 18.9752 171.932 20.3382C168.545 21.68 164.202 22.3041 156.543 23.2482C105.068 29.6031 58.1328 57.9254 30.4518 99.3392L30.4516 99.3395M181.655 13.2629L30.4516 99.3395M30.4516 99.3395C16.5439 120.127 7.6509 145.153 5.36626 169.986L4.37046 169.895L30.4516 99.3395Z" stroke="white" stroke-width="2"/>
</g>
<g filter="url(#filter1_d_1124_4595)">
<path d="M272.171 62.7835C272.471 63.0613 274.271 64.4965 276.221 65.978C294.321 79.9131 308.471 96.3484 318.771 115.469C337.971 150.932 341.071 192.691 327.221 229.867C314.021 265.422 286.621 294.728 250.921 311.487C232.171 320.284 213.771 325.006 192.171 326.58C183.771 327.228 177.171 324.774 170.921 318.802C161.921 310.145 153.121 306.395 141.821 306.395C136.071 306.395 131.721 307.135 127.021 308.895C120.771 311.256 114.121 316.209 110.321 321.348L108.371 324.034H123.071H137.771L143.071 332.506C146.021 337.182 148.421 341.256 148.421 341.487C148.421 341.765 146.071 345.7 143.221 350.284L137.971 358.524L123.221 358.756L108.421 358.987L110.221 361.441C118.421 372.784 134.021 378.756 148.521 376.163C157.021 374.635 162.171 371.95 169.921 365.006C173.071 362.182 176.371 359.404 177.221 358.848C180.021 357.089 184.021 355.932 189.921 355.284C207.221 353.293 221.771 349.913 236.671 344.404C270.521 331.904 298.821 310.561 319.071 282.321C334.071 261.395 342.871 239.358 346.721 213.154C347.821 205.608 348.021 183.802 347.021 176.348C342.871 144.959 330.421 117.552 309.721 93.9409C305.421 89.0335 293.971 78.2465 288.671 74.1261C283.371 70.0057 270.421 61.1169 272.171 62.7835Z" fill="#D9BD30"/>
<path d="M111.125 321.943L110.333 323.034H123.071H137.771H138.325L138.618 323.503L143.916 331.972C143.917 331.973 143.917 331.973 143.917 331.973C145.396 334.317 146.738 336.512 147.712 338.153C148.198 338.972 148.596 339.658 148.873 340.158C149.012 340.406 149.125 340.617 149.206 340.779C149.246 340.859 149.284 340.939 149.315 341.013C149.33 341.049 149.35 341.098 149.367 341.153L149.368 341.156C149.378 341.188 149.421 341.321 149.421 341.487C149.421 341.64 149.386 341.761 149.375 341.801C149.358 341.859 149.339 341.91 149.323 341.95C149.292 342.029 149.253 342.114 149.213 342.195C149.132 342.361 149.02 342.573 148.884 342.818C148.612 343.311 148.223 343.982 147.749 344.781C146.801 346.381 145.497 348.517 144.07 350.812L144.07 350.812L144.064 350.821L138.814 359.062L138.525 359.516L137.986 359.524L123.236 359.756L123.236 359.756L110.372 359.957L111.027 360.849L111.027 360.849L111.031 360.855C118.99 371.864 134.195 377.708 148.344 375.179C152.522 374.428 155.833 373.401 159.04 371.729C162.255 370.053 165.41 367.705 169.253 364.261C170.835 362.843 172.455 361.436 173.789 360.312C175.098 359.208 176.187 358.33 176.674 358.011L176.681 358.006L176.689 358.002C179.676 356.124 183.852 354.944 189.809 354.29C207.036 352.307 221.507 348.945 236.324 343.466L236.324 343.466C269.994 331.032 298.129 309.81 318.258 281.738C333.162 260.946 341.903 239.06 345.731 213.01C346.27 209.311 346.596 202.033 346.658 194.708C346.721 187.381 346.519 180.13 346.029 176.481L346.029 176.479C341.905 145.286 329.538 118.062 308.969 94.6002L308.968 94.6C305.331 90.4491 296.479 82.0037 290.703 77.0856C302.44 88.3247 312.078 100.937 319.65 114.994C338.985 150.705 342.11 192.764 328.158 230.216C314.862 266.028 287.272 295.527 251.346 312.392L251.345 312.393C232.48 321.243 213.96 325.994 192.245 327.577C183.55 328.247 176.675 325.684 170.23 319.525L170.227 319.523C161.392 311.024 152.834 307.395 141.821 307.395C136.175 307.395 131.946 308.119 127.373 309.831C121.295 312.127 114.807 316.964 111.127 321.939C111.126 321.941 111.126 321.942 111.125 321.943Z" stroke="white" stroke-width="2"/>
</g>
<path d="M128.971 114.663C122.821 116.191 115.871 121.006 111.971 126.422C110.921 127.811 105.971 136.006 100.921 144.663C93.6706 157.024 91.8706 160.497 92.2706 161.098C92.7206 161.793 99.6206 161.839 175.921 161.839C251.921 161.839 259.121 161.793 259.571 161.098C259.971 160.497 258.221 157.163 251.421 145.589C246.671 137.441 241.771 129.339 240.571 127.487C236.571 121.422 229.371 116.237 222.671 114.617C218.371 113.598 133.121 113.598 128.971 114.663Z" fill="#666665"/>
<path d="M66.6704 152.071C63.9204 153.182 62.4204 155.033 62.4204 157.302C62.4204 159.617 63.7204 161.191 66.6704 162.348C69.2204 163.321 79.9204 163.274 82.2204 162.256C87.7204 159.802 87.7204 154.617 82.2204 152.302C79.6704 151.237 69.1204 151.098 66.6704 152.071Z" fill="#666665"/>
<path d="M269.621 152.302C265.421 154.061 264.221 157.441 266.771 160.265C268.871 162.533 270.621 162.996 277.421 162.996C284.071 162.996 286.071 162.533 288.171 160.404C290.721 157.858 289.121 153.598 285.071 152.071C282.471 151.052 272.221 151.237 269.621 152.302Z" fill="#666665"/>
<path d="M97.8203 166.237C86.4703 168.043 77.8203 175.172 74.5203 185.45C73.5203 188.598 73.0703 219.108 73.9203 224.848C75.3203 233.922 81.6703 241.191 90.9203 244.339L94.6703 245.635H176.17H257.67L261.07 244.385C269.17 241.376 274.67 235.821 277.27 228.043C278.07 225.543 278.17 223.413 278.17 206.746C278.17 190.08 278.07 187.95 277.27 185.496C274.22 176.33 267.42 169.941 257.42 166.885C254.82 166.052 251.02 166.006 177.42 165.959C134.92 165.913 99.1203 166.052 97.8203 166.237ZM94.6703 174.941C94.9703 175.126 95.5703 175.821 96.0203 176.515C96.5703 177.256 97.8703 178.043 99.5203 178.598C102.07 179.385 105.57 179.432 176.17 179.432C249.02 179.432 250.22 179.432 252.62 178.506C254.27 177.904 255.37 177.117 255.92 176.191C257.37 173.737 260.42 174.246 260.42 176.978C260.42 177.996 259.87 178.876 258.52 180.126C256.47 182.024 253.47 183.089 247.92 183.83C245.97 184.108 216.57 184.293 175.42 184.246C101.72 184.246 101.42 184.246 96.3703 182.071C92.8203 180.496 91.4203 179.015 91.4203 176.793C91.4203 174.987 93.2203 173.969 94.6703 174.941ZM91.6703 185.172C96.2703 187.163 102.22 191.515 109.12 197.904C117.07 205.219 117.17 205.728 110.97 208.598C104.27 211.746 93.9203 209.709 85.0203 203.506C77.4203 198.182 77.4703 189.154 85.1703 184.709C87.1703 183.552 88.1703 183.598 91.6703 185.172ZM266.37 184.524C268.37 185.45 271.32 188.784 271.92 190.728C273.92 197.348 270.22 202.626 260.62 206.978C256.12 209.015 251.42 210.219 247.77 210.219C244.87 210.219 240.42 208.83 238.12 207.209C235.22 205.126 235.62 204.339 242.62 197.904C249.47 191.654 255.62 187.163 260.17 185.172C263.57 183.645 264.42 183.552 266.37 184.524ZM227.42 219.756C235.47 221.422 241.77 227.117 242.72 233.506C242.97 235.265 242.87 235.867 242.17 236.608C241.27 237.534 240.42 237.534 175.87 237.534C103.37 237.534 108.92 237.765 108.92 234.524C108.92 230.219 112.97 224.756 118.17 221.978C123.77 218.969 122.17 219.061 175.57 219.061C217.67 219.015 224.42 219.108 227.42 219.756Z" fill="#666665"/>
<path d="M77.9705 248.506C77.8705 254.802 78.4205 258.367 79.7205 260.959C81.1205 263.691 82.1705 263.922 93.3705 263.922H103.32L104.87 262.719C106.82 261.237 107.92 257.904 107.92 253.645V250.496H102.32C99.2205 250.496 95.1205 250.172 93.1705 249.802C89.1705 249.015 82.4205 246.052 80.0705 244.015C79.1705 243.228 78.3705 242.626 78.2205 242.626C78.1205 242.626 77.9705 245.265 77.9705 248.506Z" fill="#666665"/>
<path d="M271.171 244.293C268.421 246.515 262.871 248.969 258.671 249.802C256.771 250.172 252.621 250.496 249.471 250.496H243.771L244.021 254.802C244.271 259.432 245.071 261.376 247.221 262.95C248.471 263.876 249.171 263.922 258.721 263.922C268.771 263.922 268.871 263.922 270.321 262.765C272.971 260.682 273.571 258.552 273.721 250.126C273.821 246.006 273.721 242.626 273.521 242.626C273.321 242.672 272.271 243.413 271.171 244.293Z" fill="#666665"/>
<defs>
<filter id="filter0_d_1124_4595" x="0" y="-6.10352e-05" width="247.471" height="323.194" filterUnits="userSpaceOnUse" color-interpolation-filters="sRGB">
<feFlood flood-opacity="0" result="BackgroundImageFix"/>
<feColorMatrix in="SourceAlpha" type="matrix" values="0 0 0 0 0 0 0 0 0 0 0 0 0 0 0 0 0 0 127 0" result="hardAlpha"/>
<feOffset dy="4"/>
<feGaussianBlur stdDeviation="2"/>
<feComposite in2="hardAlpha" operator="out"/>
<feColorMatrix type="matrix" values="0 0 0 0 0 0 0 0 0 0 0 0 0 0 0 0 0 0 0.25 0"/>
<feBlend mode="normal" in2="BackgroundImageFix" result="effect1_dropShadow_1124_4595"/>
<feBlend mode="normal" in="SourceGraphic" in2="effect1_dropShadow_1124_4595" result="shape"/>
</filter>
<filter id="filter1_d_1124_4595" x="104.371" y="62.5779" width="247.299" height="322.185" filterUnits="userSpaceOnUse" color-interpolation-filters="sRGB">
<feFlood flood-opacity="0" result="BackgroundImageFix"/>
<feColorMatrix in="SourceAlpha" type="matrix" values="0 0 0 0 0 0 0 0 0 0 0 0 0 0 0 0 0 0 127 0" result="hardAlpha"/>
<feOffset dy="4"/>
<feGaussianBlur stdDeviation="2"/>
<feComposite in2="hardAlpha" operator="out"/>
<feColorMatrix type="matrix" values="0 0 0 0 0 0 0 0 0 0 0 0 0 0 0 0 0 0 0.25 0"/>
<feBlend mode="normal" in2="BackgroundImageFix" result="effect1_dropShadow_1124_4595"/>
<feBlend mode="normal" in="SourceGraphic" in2="effect1_dropShadow_1124_4595" result="shape"/>
</filter>
</defs>
</svg>
