<svg width="511" height="471" viewBox="0 0 511 471" fill="none" xmlns="http://www.w3.org/2000/svg">
<path d="M151.305 0.366379C127.809 3.73169 109.312 19.8984 102.951 42.7297C101.069 49.4603 100.55 61.6678 101.848 68.6624C103.276 76.3168 106.456 84.1032 110.805 90.7679C131.184 121.716 174.8 125.279 199.853 98.0264C207.252 89.976 212.249 80.21 214.326 69.7182C215.949 61.4039 215.364 48.8005 212.963 41.278C207.706 24.7154 197.062 12.4419 181.744 5.24937C173.047 1.15822 160.196 -0.887367 151.305 0.366379ZM190.117 26.629C191.155 27.7508 191.091 27.9487 189.338 29.6644C188.3 30.7202 187.586 31.9079 187.716 32.3698C187.91 32.7657 187.586 33.5576 187.002 34.0195C186.417 34.4814 186.028 35.9331 186.028 37.5168C186.028 40.0243 185.574 40.6181 178.11 48.3386C171.49 55.1352 170.192 56.7848 170.321 58.2365C170.646 60.3481 166.362 65.0331 164.22 65.0331C162.598 65.0331 160.067 67.8706 160.067 69.5862C160.067 70.1801 159.223 71.1699 158.249 71.7638L156.432 72.8855L150.396 66.7488C144.619 60.876 144.425 60.612 145.204 58.8304C145.658 57.8406 146.761 56.9168 147.67 56.6529C150.007 56.125 151.629 54.5413 151.629 52.8916C151.629 52.0338 152.862 50.1862 154.485 48.6025C156.756 46.359 157.73 45.8311 158.898 46.095C160.131 46.4249 161.689 45.2372 168.634 38.1766C176.552 30.1923 177.006 29.9283 179.148 30.2583C180.836 30.5222 181.679 30.3242 182.458 29.4004C183.042 28.7406 183.886 28.2787 184.341 28.4766C184.795 28.6746 185.833 28.0147 186.677 27.0909C188.494 25.1113 188.754 25.1113 190.117 26.629ZM149.357 68.3325L154.55 73.6114L146.437 81.8597C137.091 91.3617 135.208 92.4175 131.055 90.372C128.199 88.9202 127.68 87.0066 130.211 87.3366C135.663 87.9305 137.285 87.6665 136.377 86.1488C136.052 85.6209 135.663 85.6209 135.144 86.0828C134.105 87.0066 130.665 83.5094 131.184 82.1236C131.379 81.5298 130.795 80.474 129.886 79.5502L128.199 77.9665L135.533 70.51C139.557 66.4189 143.127 63.0535 143.516 63.0535C143.906 63.0535 146.502 65.4291 149.357 68.3325Z" fill="black"/>
<path d="M170.516 40.8821L163.117 48.4046L165.584 50.7801C166.947 52.0999 168.245 53.1556 168.439 53.1556C168.699 53.1556 172.204 49.7243 176.293 45.5672L183.627 37.9787L181.485 35.6692C180.252 34.4155 178.954 33.3597 178.564 33.3597C178.175 33.3597 174.54 36.725 170.516 40.8821Z" fill="black"/>
<path d="M352.506 0.366447C338.097 2.41203 324.597 9.73653 315.965 20.1624C309.799 27.6849 306.23 34.4815 303.698 43.9835C301.881 50.5822 302.076 66.9468 304.023 73.8094C309.67 93.8693 324.597 108.782 344.847 114.655C352.052 116.767 365.746 116.767 373.34 114.721C395.992 108.452 412.153 90.438 415.852 67.3427C416.891 60.6781 416.241 48.9985 414.489 42.7298C408.713 22.01 392.357 6.17326 371.977 1.48821C366.136 0.168488 357.439 -0.359406 352.506 0.366447ZM369.381 36.3291C369.381 38.1107 369.121 38.3087 367.304 38.5066C365.682 38.6386 365.162 39.0345 365.162 40.0243C365.162 41.0801 365.617 41.2781 368.278 41.2781C371.198 41.2781 371.393 41.41 373.145 44.2475C374.898 47.0189 375.222 47.2169 377.883 47.2169C380.285 47.2169 380.739 47.4148 380.739 48.5366C380.739 49.6584 381.193 49.8563 383.984 49.8563H387.23V62.0638V74.2713H382.686C378.857 74.2713 378.143 74.4693 378.143 75.3931C378.143 76.053 376.78 77.9666 375.093 79.6822L372.042 82.8496H364.059H356.141L354.064 80.2101C352.052 77.6366 351.857 77.5706 347.963 77.5706C344.004 77.5706 343.809 77.5047 342.057 75.0632C340.758 73.4135 340.109 71.5659 339.85 69.3223C339.525 66.3529 339.396 66.023 337.773 65.825C336.085 65.6271 336.021 65.7591 335.826 69.0584C335.631 72.9516 334.268 74.4693 332.256 73.2155C331.218 72.5557 331.088 71.17 331.088 59.4244C331.088 47.6788 331.218 46.293 332.256 45.6332C334.138 44.3794 335.631 45.8971 335.826 49.4604C336.021 52.4298 336.15 52.5618 337.773 52.3638C339.396 52.1658 339.525 51.9019 339.72 48.6686L339.915 45.2373H342.121C343.874 45.2373 344.653 44.7754 345.821 43.2577C346.924 41.674 347.703 41.2781 349.715 41.2781C351.727 41.2781 352.182 41.0801 352.182 39.9583C352.182 39.1005 351.727 38.6386 350.883 38.6386C349.391 38.6386 348.093 36.527 348.677 35.0094C349.066 34.1515 350.429 34.0196 359.256 34.1515L369.381 34.3495V36.3291Z" fill="black"/>
<path d="M348.092 48.2066C347.119 49.4604 345.886 50.5161 345.366 50.5161C344.523 50.5161 344.393 52.1658 344.393 60.2821C344.393 72.4896 344.588 72.9515 350.494 72.9515C354.453 72.9515 354.583 73.0175 356.465 75.591L358.347 78.2305H364.318H370.289L371.912 76.0529C372.886 74.7332 373.6 72.9515 373.6 71.7638V69.6522H378.143H382.686V62.0638V54.4753H379.441C376.65 54.4753 376.196 54.2774 376.196 53.1556C376.196 52.1658 375.741 51.8359 374.249 51.8359C372.756 51.8359 371.977 51.242 370.354 48.8665L368.342 45.8971H359.126H349.91L348.092 48.2066Z" fill="black"/>
<path d="M239.898 23.5277C233.343 24.1216 220.362 25.9032 219.973 26.2991C219.843 26.4311 220.622 28.4767 221.66 30.7862C222.699 33.0957 223.997 36.725 224.581 38.8366C225.554 42.2678 225.879 42.6638 227.112 42.3998C236.718 39.9583 266.833 39.4964 280.788 41.476C285.266 42.1359 289.485 42.7957 290.263 42.9937C291.432 43.3236 291.756 42.9277 292.47 40.1563C292.924 38.4406 294.158 34.8114 295.261 32.1719C296.299 29.5325 297.013 27.2229 296.884 27.091C296.299 26.4971 280.009 24.1216 272.09 23.4617C262.55 22.7358 248.92 22.7358 239.898 23.5277Z" fill="black"/>
<path d="M97.2399 99.8081C85.3625 114.457 73.0958 135.837 65.7616 154.775C61.478 165.927 61.6078 165.333 64.139 165.333C65.3073 165.333 68.3578 165.795 70.8241 166.388C73.3554 166.916 76.0813 167.51 76.99 167.708C78.5477 168.038 78.7424 167.708 81.1438 161.571C87.2448 145.933 96.3962 129.238 105.742 116.635C108.468 113.005 110.74 109.838 110.74 109.706C110.74 109.508 109.572 108.122 108.079 106.539C106.651 104.955 104.25 102.052 102.822 100.138C101.394 98.2904 100.096 96.7067 100.031 96.7067C99.901 96.7067 98.6678 98.0924 97.2399 99.8081Z" fill="black"/>
<path d="M413.645 101.458C412.801 102.646 410.27 105.483 407.999 107.727L403.974 111.884L408.842 118.614C418.059 131.416 426.821 147.582 432.078 161.374C433.246 164.475 434.284 167.114 434.349 167.246C434.479 167.378 437.14 166.982 440.256 166.389C443.371 165.795 447.07 165.333 448.433 165.333C450.186 165.333 450.835 165.069 450.835 164.343C450.835 161.176 440.256 137.42 433.895 126.203C429.482 118.548 416.306 99.3463 415.462 99.3463C415.398 99.3463 414.554 100.336 413.645 101.458Z" fill="black"/>
<path d="M311.616 156.029C295.65 158.602 282.475 168.434 275.595 182.819C272.22 189.88 270.922 195.818 270.922 203.935C270.922 212.051 272.285 218.122 275.595 225.05C289.679 254.48 327.778 261.409 351.013 238.71C371.198 218.98 370.614 187.438 349.78 168.038C344.977 163.485 336.28 158.734 329.854 157.084C325.116 155.897 315.9 155.369 311.616 156.029ZM330.309 167.246C340.109 170.744 347.703 177.474 352.051 186.58C355.102 192.981 356.076 197.138 356.076 203.935C356.076 217.066 350.039 228.68 339.525 235.872C333.165 240.161 328.037 241.943 320.378 242.339C308.761 242.933 299.934 239.567 291.756 231.319C286.693 226.238 284.097 222.015 281.696 214.823C280.203 210.335 280.008 198.92 281.371 194.037C285.071 180.708 296.105 169.688 309.085 166.322C314.407 164.937 325.246 165.399 330.309 167.246Z" fill="black"/>
<path d="M313.434 174.835C301.492 178.728 293.314 191.331 294.742 203.803L295.131 207.762L291.432 211.589L287.667 215.482L289.42 219.178C292.405 225.314 300.583 233.035 305.451 234.288C306.814 234.618 307.658 234.091 310.578 231.055L314.083 227.426L319.081 227.822C330.374 228.68 340.304 222.873 345.302 212.447C347.508 207.96 348.417 200.965 346.859 200.965C346.34 200.965 343.29 203.671 340.109 206.97L334.268 212.975L324.597 210.401L314.862 207.894L312.071 198.062L309.345 188.23L315.251 182.027C318.496 178.662 321.028 175.495 320.833 175.033C320.508 173.911 316.679 173.779 313.434 174.835Z" fill="black"/>
<path d="M45.5117 178.332C34.1536 180.773 24.2882 186.514 15.9157 195.423C-7.51457 220.629 -3.87997 261.409 23.6392 281.997C34.7377 290.311 46.68 293.874 60.9588 293.149C70.1751 292.687 74.1992 291.565 83.3506 286.946C89.5164 283.91 91.5933 282.393 96.526 277.642C105.872 268.668 111.259 258.902 113.79 246.628C115.153 239.699 114.634 225.578 112.752 219.112C109.377 207.564 101.653 196.148 92.502 189.088C84.8434 183.215 78.1583 180.114 69.0718 178.2C63.3602 176.946 51.418 177.012 45.5117 178.332ZM76.0165 218.122V220.431H64.6583H53.3002L53.1055 218.914C52.5862 215.482 52.716 215.416 64.7881 215.614L76.0165 215.812V218.122ZM106.456 216.868C108.079 218.188 108.144 218.452 108.144 224.721C108.144 233.827 108.403 233.563 94.4491 237.258L83.1559 240.227L82.9612 247.288L82.7664 254.414H59.2713H35.7113L27.4036 239.567C22.8603 231.385 18.7065 224.721 18.1873 224.721C17.733 224.721 16.8243 225.446 16.2402 226.37C15.007 228.284 13.3844 228.482 11.8916 226.832C10.9181 225.71 10.983 225.446 13.1248 222.213C14.358 220.299 15.5911 218.782 15.9157 218.782C16.1753 218.782 22.4709 220.761 29.9349 223.137L43.4348 227.426L45.7713 225.116L48.1728 222.741H64.0093L79.9107 222.675L91.5933 219.112C98.0188 217.198 103.601 215.548 103.99 215.548C104.379 215.482 105.483 216.076 106.456 216.868ZM18.5767 245.572C18.5767 246.562 17.7979 248.08 16.6945 249.201C14.358 251.577 11.5671 251.709 9.10077 249.597C6.50462 247.288 6.76424 244.121 10.0743 237.39L12.8003 231.913L15.7209 237.918C17.2786 241.217 18.5767 244.714 18.5767 245.572Z" fill="black"/>
<path d="M95.1629 223.137C91.0739 224.391 86.5956 225.71 85.2975 226.106L82.8312 226.766V230.593C82.8312 232.705 82.961 234.552 83.1557 234.684C83.4802 235.08 101.718 230.461 102.886 229.735C103.665 229.208 103.86 220.695 103.146 220.827C102.822 220.893 99.2518 221.883 95.1629 223.137Z" fill="black"/>
<path d="M28.8313 232.111C30.2592 234.75 33.0501 239.765 34.9972 243.197L38.5669 249.465L58.4274 249.663L78.2879 249.795V238.578V227.36H64.4634H50.639L48.1077 229.999C46.7447 231.451 45.1222 232.639 44.538 232.639C44.0188 232.639 39.9299 231.451 35.4515 229.999C30.9732 228.548 27.0789 227.36 26.8193 227.36C26.4948 227.36 27.4034 229.538 28.8313 232.111Z" fill="black"/>
<path d="M441.424 178.266C436.361 179.388 428.573 182.621 423.056 185.92C417.215 189.352 407.609 199.646 403.91 206.244C393.33 225.446 393.914 248.674 405.467 266.622C428.313 302.189 478.484 302.387 501.525 266.952C507.626 257.582 510.676 247.024 510.741 235.278C510.741 207.432 491.919 183.941 465.049 178.2C459.272 176.946 447.395 177.012 441.424 178.266ZM485.688 218.848C486.857 219.903 486.921 255.074 485.753 256.262C485.169 256.856 477.121 257.054 453.691 257.054C423.835 257.054 422.342 256.988 421.499 255.8C420.85 254.876 420.72 250.785 420.979 236.532L421.304 218.452L424.224 218.122C430.131 217.462 484.78 218.122 485.688 218.848Z" fill="black"/>
<path d="M450.056 232.441L445.708 239.567L448.239 239.765C451.095 239.963 451.16 240.161 450.251 245.11L449.667 248.014L454.794 242.471C461.998 234.684 461.998 234.618 458.039 234.618H454.794L454.599 229.999L454.405 225.38L450.056 232.441Z" fill="black"/>
<path d="M234.9 212.183C212.768 215.614 194.985 224.061 186.158 235.476C184.925 236.994 183.497 238.446 182.913 238.644C182.328 238.842 176.747 239.831 170.581 240.887L159.353 242.735L159.547 247.42L159.742 252.105L165.129 252.303L170.581 252.501L168.05 254.349C164.026 257.318 159.158 263.125 156.951 267.81C151.499 279.027 150.266 295.788 153.641 311.889L154.355 315.122H169.218H184.081V310.173V305.224H248.011H311.941V310.173V315.122L330.958 314.99L349.91 314.792L350.753 310.833C351.208 308.655 351.792 302.255 351.987 296.58C352.506 282.393 350.753 273.749 345.496 264.972C343.03 260.815 343.225 260.815 335.371 263.323C325.506 266.358 312.071 266.556 301.816 263.653C295.975 262.069 287.992 258.176 283.383 254.744L280.268 252.435H235.485C210.821 252.435 190.506 252.171 190.312 251.841C189.727 250.917 193.038 244.846 195.828 241.613C205.434 230.593 228.28 222.741 251.71 222.477C258.785 222.411 259.953 222.279 259.694 221.421C259.434 220.497 258.59 216.67 257.747 212.645L257.422 210.863L250.088 210.929C246.129 210.929 239.249 211.523 234.9 212.183ZM183.627 272.891L197.711 277.048V280.215V283.449H180.511H163.312V280.479C163.312 275.134 166.362 267.876 168.374 268.47C169.023 268.602 175.838 270.647 183.627 272.891ZM338.811 272.165C339.85 274.54 340.564 277.51 340.693 279.621L340.823 283.119H323.624H306.424L306.23 280.149L306.035 277.114L320.833 272.759C328.946 270.317 335.955 268.338 336.345 268.338C336.734 268.272 337.838 270.053 338.811 272.165Z" fill="black"/>
<path d="M78.937 302.057C78.0283 302.387 74.5235 303.245 71.1485 303.97C67.7736 304.696 64.9178 305.422 64.788 305.554C64.4635 305.884 69.461 317.696 73.0957 325.086C81.0139 341.055 87.3745 350.689 102.108 369.099C102.757 369.891 103.146 369.759 104.639 367.845C105.612 366.592 108.273 363.82 110.48 361.643L114.504 357.683L109.312 351.085C99.3816 338.415 87.6341 318.355 82.8312 305.884C81.1437 301.397 80.949 301.265 78.937 302.057Z" fill="black"/>
<path d="M431.169 304.036C430.65 305.224 429.417 308.127 428.443 310.503C423.381 322.776 413.386 339.339 404.104 351.085L400.47 355.704L406.571 361.643L412.672 367.581L414.294 365.602C426.691 350.293 437.335 332.608 444.734 315.188C448.693 305.884 448.758 305.554 447.395 305.356C444.474 304.894 434.22 302.717 433.181 302.255C432.337 301.925 431.883 302.321 431.169 304.036Z" fill="black"/>
<path d="M148.384 354.78C136.896 356.825 126.511 362.434 117.879 371.21C105.742 383.616 100.29 397.935 101.199 415.619C102.173 435.151 112.168 452.11 128.978 462.404C144.425 471.906 165.324 473.094 181.745 465.307C199.204 457.125 211.6 440.694 214.586 421.822C215.689 414.894 215.105 402.62 213.353 396.615C207.446 376.489 192.843 361.774 172.918 356.034C167.401 354.384 154.096 353.724 148.384 354.78ZM141.504 382.89C141.764 383.088 141.829 384.342 141.634 385.662C141.31 387.839 141.504 388.301 143.192 389.555C144.685 390.742 145.398 390.874 146.761 390.347C149.552 389.291 150.331 389.555 151.37 392.062C152.473 394.702 151.954 395.955 149.293 396.945C148.449 397.275 147.735 398.331 147.475 399.651C147.151 401.432 147.346 402.158 148.709 403.544C150.721 405.655 150.721 406.645 148.903 408.625C147.281 410.406 146.307 410.538 144.165 409.087C141.959 407.635 138.778 408.889 138.259 411.396C137.61 414.564 137.415 414.762 135.403 414.762C131.898 414.762 130.795 413.772 131.185 410.934C131.509 408.823 131.314 408.295 129.822 407.239C128.394 406.183 127.745 406.117 125.798 406.711C122.877 407.635 121.903 406.909 121.319 403.346C120.995 401.036 121.06 400.838 122.942 400.179C124.564 399.651 125.084 398.991 125.408 397.143C125.798 395.164 125.603 394.57 124.11 393.25C122.098 391.27 122.033 390.742 123.786 388.301C125.343 386.057 126.187 385.925 128.459 387.707C129.951 388.895 130.211 388.961 132.418 388.037C134.3 387.245 134.754 386.651 134.754 385.2C134.754 382.56 135.923 381.636 138.648 382.098C139.882 382.362 141.18 382.692 141.504 382.89ZM174.735 397.671L177.656 398.463L177.266 400.97C177.007 402.422 177.071 403.544 177.396 403.544C177.785 403.544 179.408 404.6 181.031 405.919C184.016 408.295 184.081 408.295 185.769 407.173C187.716 405.919 187.651 405.919 189.987 410.406C191.415 413.046 191.415 413.046 188.754 414.63C188.17 415.026 188.105 416.279 188.43 419.711C188.949 424.132 189.014 424.264 191.091 424.792C192.194 425.121 193.168 425.451 193.168 425.517C193.168 425.649 192.713 427.299 192.129 429.213C191.156 432.644 191.091 432.71 188.949 432.314C187.002 431.918 186.677 432.116 185.444 434.096C184.73 435.283 183.562 436.801 182.848 437.461C181.615 438.583 181.615 438.847 182.523 440.628C183.043 441.684 183.367 442.74 183.172 443.004C182.458 444.126 176.747 446.699 176.487 446.039C175.708 443.73 174.67 443.334 170.321 443.598L165.908 443.928L165.519 446.171C165.064 448.745 165.194 448.745 160.781 447.425C157.471 446.369 157.406 446.369 157.795 444.192C158.184 442.212 157.99 441.882 156.043 440.628C154.809 439.836 153.317 438.649 152.668 437.923C151.564 436.735 151.305 436.669 150.136 437.527C148.06 438.979 147.54 438.781 145.593 435.415L143.711 432.314L145.269 431.126C146.047 430.532 146.956 429.938 147.216 429.938C147.475 429.938 147.346 428.949 147.021 427.827C146.697 426.639 146.437 424.528 146.437 423.208C146.437 421.36 146.177 420.7 145.398 420.7C144.879 420.7 143.841 420.436 143.192 420.04C142.088 419.447 142.088 419.183 142.997 415.949C143.581 414.036 144.1 412.32 144.23 412.188C144.36 412.056 145.269 412.254 146.372 412.65C148.124 413.244 148.384 413.178 149.422 411.594C150.007 410.604 151.24 409.021 152.084 408.097C153.641 406.381 153.641 406.249 152.668 404.27L151.629 402.224L154.68 400.245C157.795 398.265 157.795 398.265 158.898 399.585C159.483 400.311 160.067 401.168 160.196 401.432C160.326 401.762 162.338 401.696 164.74 401.3C168.699 400.706 169.153 400.442 169.737 398.793C170.451 396.681 170.711 396.681 174.735 397.671Z" fill="black"/>
<path d="M163.312 414.234C156.821 417.665 156.432 426.243 162.663 430.466C164.545 431.786 165.518 431.984 168.374 431.786C171.295 431.522 172.204 431.126 174.151 429.147C177.071 426.177 177.72 421.756 175.838 418.061C174.605 415.685 170.127 412.782 167.53 412.782C166.817 412.782 164.869 413.442 163.312 414.234Z" fill="black"/>
<path d="M347.638 355.308C325.701 360.059 308.501 377.215 303.439 399.321C302.27 404.666 302.076 406.843 302.4 414.63C302.79 424.989 303.958 429.872 307.982 438.187C313.629 449.602 322.391 458.577 333.684 464.251C349.066 471.972 365.292 472.632 380.934 466.231C402.547 457.257 416.436 436.009 416.436 411.99C416.436 375.632 382.686 347.785 347.638 355.308ZM383.984 385.596C386.515 386.849 389.176 391.072 389.176 393.844C389.176 396.351 387.943 398.529 378.597 413.046C371.198 424.396 370.484 425.319 370.16 423.604C369.835 421.624 370.354 420.7 378.467 407.965C381.128 403.874 381.258 403.544 379.96 403.544C379.181 403.544 377.234 402.884 375.677 402.158C368.927 398.793 368.927 388.895 375.677 385.53C378.467 384.144 381.193 384.144 383.984 385.596ZM366.979 393.118C366.85 394.174 364.189 396.351 357.503 400.838L348.157 407.107L351.662 407.833C368.407 411.198 371.847 434.096 356.854 442.674C341.213 451.582 323.429 434.03 331.607 417.731C333.554 413.772 335.501 411.858 341.472 408.097C344.004 406.513 350.559 402.158 356.076 398.463C361.592 394.702 366.395 391.666 366.655 391.666C366.979 391.666 367.109 392.326 366.979 393.118Z" fill="black"/>
<path d="M376.39 388.301C370.874 391.798 373.275 400.245 379.765 400.245C383.076 400.245 384.958 398.925 385.931 396.021C386.71 393.514 385.802 390.149 383.79 388.499C381.972 386.981 378.662 386.849 376.39 388.301Z" fill="black"/>
<path d="M343.16 412.188C341.991 412.584 339.655 414.234 337.902 416.015C331.282 422.746 332.256 432.974 339.979 438.253C346.47 442.74 354.907 441.354 359.451 435.085C364.059 428.883 363.539 421.492 358.088 416.015C353.999 411.792 349.001 410.538 343.16 412.188ZM351.922 418.127C355.362 419.777 357.763 424.132 357.114 427.563C355.946 433.832 348.612 437.197 343.289 433.898C338.941 431.192 337.773 424.528 340.953 420.634C342.77 418.457 345.756 416.807 347.898 416.741C348.612 416.741 350.429 417.335 351.922 418.127Z" fill="black"/>
<path d="M282.085 421.624C271.506 423.208 242.883 423.406 233.407 421.888C230.032 421.294 227.047 420.964 226.787 421.162C226.463 421.294 226.268 422.218 226.268 423.208C226.268 424.198 225.489 427.761 224.581 431.126C223.607 434.492 222.958 437.395 223.088 437.527C223.218 437.659 227.436 438.253 232.434 438.913C243.273 440.364 268.65 440.562 278.191 439.309C292.729 437.395 294.482 436.999 294.092 435.943C293.833 435.349 293.119 432.38 292.405 429.279C291.626 426.177 290.847 422.944 290.653 422.02L290.198 420.304L282.085 421.624Z" fill="black"/>
</svg>
