<svg width="50" height="50" viewBox="0 0 50 50" fill="none" xmlns="http://www.w3.org/2000/svg">
<path d="M25 5C13.955 5 5 13.955 5 25C5 36.045 13.955 45 25 45C36.045 45 45 36.045 45 25C45 13.955 36.045 5 25 5ZM36.1783 21.1783L23.5783 33.7783C23.265 34.0917 22.8417 34.2667 22.4 34.2667C21.9583 34.2667 21.5333 34.0917 21.2217 33.7783L15.4667 28.0233C14.815 27.3717 14.815 26.3183 15.4667 25.6667C16.1183 25.015 17.1717 25.015 17.8233 25.6667L22.4 30.2433L33.8217 18.8217C34.4733 18.17 35.5267 18.17 36.1783 18.8217C36.83 19.4733 36.83 20.5267 36.1783 21.1783Z" fill="#67A277"/>
</svg>
