<svg width="363" height="246" viewBox="0 0 363 246" fill="none" xmlns="http://www.w3.org/2000/svg">
<path d="M169.53 19C163.86 23.5 164.175 23.4 161.655 22C160.185 21.3 158.61 21.8 155.04 23.9C146.535 29 142.755 40.4 145.38 52.9L146.115 56.1L149.685 50.3C152.94 45 153.15 44.8 152.52 48C152.205 49.9 150.735 53.5 149.37 56C146.325 61.5 146.325 62.5 149.055 69.6C152.1 77.4 154.095 79 160.5 79C163.44 79 165.75 79.3 165.855 79.7C165.855 80.2 166.275 85.8 166.695 92.2C167.535 103.1 168.69 107 171.105 107C171.63 107 172.05 102.9 172.05 97.9C172.05 92.2 172.47 89.1 173.1 89.5C173.73 89.9 174.15 95.6 174.15 103.3C174.255 112.7 174.57 117 175.62 118.2C176.355 119.2 177.3 120 177.72 120C178.035 120 178.35 113.5 178.35 105.5C178.35 93.1 178.56 91.1 179.925 91.6C181.185 92.1 181.5 94.7 181.5 106.3C181.5 120.2 181.5 120.3 183.6 118.5C185.49 116.9 185.7 115.4 185.7 103.4C185.7 95.6 186.12 89.9 186.75 89.5C187.38 89.1 187.8 92.2 187.8 97.9C187.8 102.9 188.22 107 188.745 107C191.055 107 192.21 103.5 192.63 94.8C193.575 78.2 193.155 79.5 197.88 79.2C205.86 78.7 206.7 78.2 209.22 72.7C213.42 63.8 213.42 62.1 209.85 54.9C206.49 48.2 205.23 41.7 208.38 47.5C209.325 49.1 210.795 51.6 211.74 53L213.42 55.5L214.155 52.5C214.575 50.8 214.89 46 214.995 41.8C215.1 34.6 214.89 33.9 211.74 29.9C209.85 27.6 207.855 25.5 207.225 25.3C206.7 25.1 204.495 29.3 202.5 34.5C200.61 39.7 198.615 44 198.3 44C197.985 44 196.515 42.6 195.255 40.9L192.84 37.8L189.27 42.5C184.335 49.2 184.23 49.2 186.75 43C188.01 40 189.795 35.6 190.635 33.3C192.63 27.8 193.68 27.3 195.465 30.7L197.04 33.4L200.295 27.3L203.55 21.1L200.085 19.1C195.675 16.5 188.85 15.1 180.975 15C175.095 15 174.255 15.3 169.53 19Z" fill="black"/>
<path d="M260.985 30.8L258.255 33.5L264.975 40.4C273.165 48.7 281.46 60 285.03 67.7C286.5 70.9 287.865 73.6 288.075 73.8C288.285 74 290.385 72.9 292.695 71.4L297 68.7L293.64 63.1C283.98 46.7 268.755 28 264.975 28C264.345 28 262.56 29.2 260.985 30.8Z" fill="black"/>
<path d="M86.4751 36.1C79.9651 42.7 72.5101 52.7 65.6851 64.1L62.9551 68.8L67.1551 71.5C69.5701 72.9 71.5651 74 71.6701 73.8C71.8801 73.6 73.1401 71 74.6101 67.9C78.7051 59.3 86.5801 48.6 94.5601 40.8L101.805 33.6L98.8651 31.4C97.2901 30.1 95.4001 29.1 94.7701 29C94.1401 29 90.3601 32.2 86.4751 36.1Z" fill="black"/>
<path d="M100.755 38.7C95.4001 42.7 85.5301 56 79.9651 66.6C75.7651 74.8 75.2401 76.2 76.6051 77.5C77.4451 78.2 83.9551 82.9 91.2001 87.9C103.38 96.4 104.325 96.8 106.11 95.3C108.42 93.3 108.525 91.3 106.425 86.7C104.535 82.4 104.745 81.7 111.78 71.5C119.235 60.5 120.495 59.6 126.165 60.4C130.155 61 130.995 60.7 133.2 58.5C134.67 57 135.3 55.6 134.67 55.1C132.255 53.1 105.9 36 105.165 36C104.64 36 102.75 37.2 100.755 38.7Z" fill="black"/>
<path d="M241.35 44.3C234.63 48.8 228.015 53.2 226.65 54.1L224.025 55.8L226.545 58.4C228.75 60.6 229.59 60.8 233.58 60.3C239.355 59.6 239.88 60 247.965 71.4C254.37 80.5 255.315 83.7 253.005 87.9C251.325 90.8 251.64 93.5 253.74 95.3C255.42 96.8 256.47 96.2 269.175 87.4C276.63 82.2 283.14 77.6 283.665 77.1C284.925 75.9 279.255 64.4 272.535 54.7C267.075 46.7 256.68 36 254.58 36C253.95 36.1 247.965 39.8 241.35 44.3Z" fill="black"/>
<path d="M215.52 80.3L195.675 94.6L194.73 101.9C193.995 108.2 193.575 109.2 191.37 110C189.585 110.7 188.85 111.7 188.85 113.7C188.85 115.4 187.38 118.3 185.175 120.9C181.5 125.2 181.08 127 183.285 127.7C183.81 127.9 189.795 123.9 196.41 118.8C203.13 113.7 217.41 103 228.12 95.2C244.395 83.3 247.545 80.6 246.495 79.4C245.025 77.7 247.44 76.2 222.03 94.2C211.425 101.8 202.395 108 202.08 108C199.455 108 206.175 102.2 222.975 89.9C233.685 82.1 242.4 75.3 242.4 74.8C242.4 73.7 236.835 66.1 235.995 66C235.575 66 226.335 72.4 215.52 80.3Z" fill="black"/>
<path d="M123.435 68.7C121.44 70.5 123.96 72.8 139.5 83.1C148.74 89.3 156.3 94.7 156.3 95.3C156.3 96.9 154.305 95.7 137.925 84.5C129.21 78.5 121.44 73.6 120.6 73.4C119.235 73.1 111.36 80.7 112.305 81.3C140.655 100.7 159.345 113.7 160.92 115.1C162.915 116.9 162.915 117 157.245 119.4C152.31 121.6 150.21 121.9 141.075 121.7C132.15 121.6 129.945 121.9 126.27 123.7C113.775 130 109.785 143.5 117.03 154.7C123.015 163.9 136.035 168.3 146.325 164.6C152.1 162.4 159.03 155.2 160.605 149.6C163.02 141.3 164.175 139.4 171.315 132.9L178.665 126.2L174.78 121.5C172.47 118.5 171 115.6 171 113.8C171 111.7 170.37 110.7 168.48 110C166.275 109.2 165.855 108.2 165.225 103.3C164.91 100.1 164.49 96.9 164.385 96.1C164.175 95 125.85 68 124.38 68C124.275 68 123.75 68.3 123.435 68.7ZM145.905 135.9C151.89 141.6 149.16 151.8 141.075 153.9C129.84 156.8 121.86 143.9 130.155 136.1C132.78 133.6 134.25 133 138.135 133C141.915 133 143.385 133.6 145.905 135.9Z" fill="black"/>
<path d="M8.25 74.9C8.25 76.5 16.02 87.8 19.59 91.3C31.875 103.6 58.23 114.9 80.175 117.5L85.845 118.2L90.885 125.6C93.615 129.6 95.925 132.8 96.03 132.7C96.24 132.5 95.82 129.3 95.295 125.5C94.665 121.6 94.455 114.6 94.875 109.7C95.295 103 95.19 100.9 94.14 100.6C93.405 100.4 86.37 98.8 78.6 97C62.535 93.4 36.18 85.2 19.59 78.7C13.29 76.2 8.25 74.5 8.25 74.9Z" fill="black"/>
<path d="M338.475 83.6C330.39 86.5 323.145 88.9 322.515 89C321.78 89 321.15 89.7 321.15 90.5C321.15 91.3 320.73 92 320.1 92C319.575 92 319.05 91.6 319.05 91C319.05 90.5 318.315 90.3 317.475 90.6C316.635 91 315.9 91.8 315.9 92.6C315.9 94.2 314.115 94.5 313.59 93C313.485 92.5 307.08 93.8 299.52 95.9C291.855 98 281.67 100.5 276.735 101.5L267.81 103.3L267.285 117.9C267.075 125.9 266.445 133.6 266.025 135C265.185 137.5 272.955 126.9 274.11 123.9C274.53 122.8 277.26 121.9 282.825 121.1C309.075 117 334.17 105.3 345.3 91.9C349.395 86.9 354.225 79.1 353.49 78.5C353.28 78.4 346.56 80.7 338.475 83.6Z" fill="black"/>
<path d="M31.2451 118.4C37.5451 124.6 57.6001 133.1 60.4351 130.8C61.3801 130.1 61.8001 130.1 61.8001 131C61.8001 131.7 62.4301 132 63.2701 131.7C64.1101 131.4 64.9501 131.5 65.1601 132C65.3701 132.5 68.6251 133.4 72.5101 134C77.8651 134.8 80.8051 135.9 84.5851 138.6C87.315 140.5 93.195 143.9 97.5 146.1L105.375 150.2L99.075 144.7C95.61 141.7 91.095 136.7 89.1 133.6C86.16 129.2 84.6901 127.8 81.7501 127.1C70.9351 124.4 29.4601 115 28.7251 115C28.2001 115 29.3551 116.5 31.2451 118.4Z" fill="black"/>
<path d="M313.8 123.1C273.9 132.7 276.525 131.8 274.32 135.9C273.27 137.9 269.385 142.3 265.815 145.7C262.14 149.2 259.62 152 260.04 152C261.3 152 274.845 144.1 279.255 140.8C281.355 139.3 284.19 138 285.45 138C286.605 138 287.445 137.6 287.13 137.1C286.815 136.6 287.235 135.7 288.075 135C289.335 134 289.65 134.1 289.65 135.4C289.65 136.3 290.385 137 291.225 137C292.065 137 292.8 136.6 292.8 136.2C292.8 135.7 294.06 135.5 295.74 135.7C303.825 136.8 325.35 128.2 332.07 121.1C334.065 119 334.065 119 332.07 119.1C331.02 119.1 322.725 120.9 313.8 123.1Z" fill="black"/>
<path d="M196.83 125.6C193.05 128.8 189.9 131.7 189.9 132C189.9 132.3 191.58 134.2 193.575 136C196.305 138.5 197.985 141.4 199.56 146.3C204.915 163.1 218.775 170.2 233.58 163.6C242.505 159.6 249.015 149.5 247.23 142.3C246.81 140.8 246.495 138.6 246.495 137.6C246.495 133.1 239.25 125.2 233.055 122.8C231.585 122.3 225.18 121.7 218.775 121.6C212.475 121.5 206.49 121 205.545 120.6C204.39 120.1 201.87 121.6 196.83 125.6ZM229.485 134.6C235.365 138.1 236.415 146.5 231.585 150.8C223.605 158 211.95 153.5 211.95 143.2C211.95 134.4 221.4 129.8 229.485 134.6Z" fill="black"/>
<path d="M179.4 156.4L178.035 161H172.26H166.485L170.79 164C175.83 167.4 175.725 167.3 173.625 172.9C172.785 175.1 172.365 177 172.785 177C173.1 177 175.095 175.7 177.195 174.1L181.08 171.2L185.07 174.1C187.38 175.7 189.375 176.8 189.585 176.7C189.795 176.5 189.27 174.2 188.43 171.7L186.96 167L190.53 164.9C195.57 162 194.94 161.7 188.745 164.1C182.655 166.3 181.815 166.1 183.6 163C184.44 161.4 184.44 160 183.495 157.2C181.71 151.6 180.87 151.5 179.4 156.4Z" fill="black"/>
<path d="M53.4001 200.7C49.6201 216.9 48.2551 221.5 47.1 221.8C46.575 222 46.05 223.5 46.05 225.1C46.05 228 46.155 228 51.8251 228C57.4951 228 57.6001 228 57.6001 225C57.6001 223.3 57.1801 222 56.5501 222C56.0251 222 55.5001 221.1 55.5001 220C55.5001 218.4 56.2351 218 59.1751 218C62.1151 218 62.8501 218.4 62.8501 220C62.8501 221.1 62.4301 222 61.8001 222C61.2751 222 60.7501 223.3 60.7501 225C60.7501 228 60.8551 228 66.5251 228C72.1951 228 72.3001 228 72.3001 225.1C72.3001 223.5 71.7751 222 71.2501 221.8C70.0951 221.5 68.8351 217.2 64.9501 200.7L62.6401 191H59.1751H55.7101L53.4001 200.7Z" fill="black"/>
<path d="M74.3999 194C74.3999 196 74.9249 197 75.9749 197C77.3399 197 77.5499 199.1 77.5499 210.3C77.5499 223 77.6549 223.8 79.9649 225.8C83.5349 229 92.0399 228.9 95.1899 225.7C97.2899 223.6 97.4999 222.3 97.4999 210.2C97.4999 199.1 97.7099 197 99.0749 197C100.125 197 100.65 196 100.65 194C100.65 191 100.545 191 94.8749 191C89.2049 191 89.0999 191 89.0999 194C89.0999 195.6 89.6249 197 90.1499 197C90.7799 197 91.1999 201.8 91.1999 209.5V222H87.5249H83.8499V209.5C83.8499 201.8 84.2699 197 84.8999 197C85.5299 197 85.9499 195.6 85.9499 194C85.9499 191 85.8449 191 80.1749 191C74.5049 191 74.3999 191 74.3999 194Z" fill="black"/>
<path d="M103.8 196.5C103.8 201.9 103.8 202 106.95 202C109.575 202 110.1 201.6 110.1 199.5C110.1 198.1 110.625 197 111.15 197C111.78 197 112.2 201.8 112.2 209.5C112.2 217.2 111.78 222 111.15 222C110.625 222 110.1 223.3 110.1 225C110.1 227.9 110.205 228 115.35 228C120.495 228 120.6 227.9 120.6 225C120.6 223.3 120.18 222 119.55 222C118.92 222 118.5 217.2 118.5 209.5C118.5 201.8 118.92 197 119.55 197C120.18 197 120.6 198.1 120.6 199.5C120.6 201.6 121.125 202 123.75 202C126.9 202 126.9 201.9 126.9 196.5V191H115.35H103.8V196.5Z" fill="black"/>
<path d="M133.41 193.2C131.415 195.3 131.205 196.8 130.995 209.3C130.785 222.5 130.89 223.1 133.2 225.5C136.665 229 145.38 229.1 148.74 225.7C150.84 223.5 151.05 222.4 151.05 209.4C151.05 196 150.945 195.2 148.635 193.2C145.17 190.1 136.56 190.1 133.41 193.2ZM144.75 209.5V222H141.075H137.4V209.5V197H141.075H144.75V209.5Z" fill="black"/>
<path d="M154.2 194C154.2 196 154.725 197 155.775 197C157.14 197 157.35 199.1 157.35 209.5C157.35 219.9 157.14 222 155.775 222C154.725 222 154.2 223 154.2 225V228H160.605H167.01L166.275 225.3C165.96 223.8 165.12 222.3 164.595 221.9C163.965 221.6 163.65 218.2 163.86 214.4L164.175 207.5L168.795 217.8L173.415 228.1L177.72 218.6C180.135 213.4 182.445 208.8 182.865 208.4C183.285 208 183.6 210.9 183.6 214.8C183.6 220.5 183.285 222 182.025 222C180.975 222 180.45 223 180.45 225C180.45 228 180.555 228 186.225 228C191.895 228 192 228 192 225C192 223.3 191.58 222 190.95 222C190.32 222 189.9 217.2 189.9 209.5C189.9 201.8 190.32 197 190.95 197C191.58 197 192 195.6 192 194C192 191.1 191.79 191 187.485 191H182.97L178.35 201.6L173.73 212.2L171.84 208.3C170.79 206.2 168.585 201.5 166.8 197.7L163.755 191H158.925C154.41 191 154.2 191.1 154.2 194Z" fill="black"/>
<path d="M197.985 193.5C195.15 196.1 195.15 196.1 195.15 209.9C195.15 223 195.255 223.8 197.565 225.8C199.455 227.5 201.345 228 205.86 228C211.32 228 212.055 227.7 214.05 225C216.15 222.2 216.255 221 215.94 209.1C215.625 197 215.415 196 213.105 193.6C209.535 189.9 202.08 189.9 197.985 193.5ZM209.64 209.7L209.955 222H205.65H201.45V210.2C201.45 203.7 201.765 198 202.185 197.6C202.605 197.2 204.39 197 206.175 197.2L209.325 197.5L209.64 209.7Z" fill="black"/>
<path d="M219.3 196.5C219.3 201.9 219.3 202 222.45 202C224.865 202 225.6 201.5 225.6 200.1C225.6 199 226.125 197.8 226.65 197.5C227.28 197.1 227.7 201.3 227.7 209.4C227.7 217.1 227.28 222 226.65 222C226.125 222 225.6 223.3 225.6 225C225.6 227.9 225.705 228 230.85 228C235.995 228 236.1 227.9 236.1 225C236.1 223.3 235.68 222 235.05 222C234.42 222 234 217.2 234 209.5C234 201.8 234.42 197 235.05 197C235.68 197 236.1 198.1 236.1 199.5C236.1 201.6 236.625 202 239.25 202C242.4 202 242.4 201.9 242.4 196.5V191H230.85H219.3V196.5Z" fill="black"/>
<path d="M246.6 194C246.6 195.6 247.125 197 247.65 197C248.28 197 248.7 201.8 248.7 209.5C248.7 217.2 248.28 222 247.65 222C247.125 222 246.6 223.3 246.6 225C246.6 228 246.705 228 252.375 228C258.045 228 258.15 228 258.15 225C258.15 223 257.625 222 256.575 222C255.21 222 255 220.2 255.21 209.7C255.525 198.1 255.63 197.5 257.73 197.2C259.83 196.9 260.25 198 263.295 210.7C265.185 218.3 266.97 225.3 267.18 226.2C267.6 227.5 268.755 228 271.17 228H274.635L278.205 213.3C280.095 205.3 282.3 198.1 283.035 197.4C283.77 196.7 284.4 195 284.4 193.6C284.4 191.1 284.085 191 278.625 191C272.955 191 272.85 191 272.85 193.9C272.85 195.5 273.375 197 274.005 197.2C274.845 197.5 274.635 199.8 273.375 205.3C272.325 209.5 271.275 212.8 270.96 212.6C270.75 212.4 269.7 209 268.755 205C267.18 199.1 267.075 197.7 268.23 197.3C269.07 197 269.7 195.5 269.7 193.9V191H258.15H246.6V194Z" fill="black"/>
<path d="M286.5 193.9C286.5 195.5 287.13 197 287.97 197.3C290.28 198.2 290.28 219.3 288.075 221.4C287.235 222.2 286.5 224 286.5 225.4V228H298.05H309.6V221.5V215H306.45C303.51 215 303.3 215.3 303.3 218.5C303.3 221.8 303.09 222 299.625 222H295.95V216.6C295.95 211.2 295.95 211.1 299.415 210.8C302.355 210.5 302.775 210.2 302.775 207.5C302.775 204.8 302.355 204.5 299.415 204.2C296.265 203.9 295.95 203.6 295.95 200.4C295.95 197.2 296.16 197 299.625 197C302.88 197 303.3 197.3 303.3 199.5C303.3 201.6 303.825 202 306.45 202C309.6 202 309.6 201.9 309.6 196.5V191H298.05H286.5V193.9Z" fill="black"/>
<path d="M64.53 233.8C64.215 234 64.425 235.1 65.055 236.1C66 237.9 69.78 238 179.925 238C292.695 238 293.745 238 294.9 236C295.53 234.9 295.845 233.9 295.74 233.8C294.9 233.4 64.95 233.3 64.53 233.8Z" fill="black"/>
</svg>
