<svg width="308" height="208" viewBox="0 0 308 208" fill="none" xmlns="http://www.w3.org/2000/svg">
<g filter="url(#filter0_d_1338_266)">
<rect x="4" width="300" height="200" rx="5" fill="white"/>
<rect x="5" y="1" width="298" height="198" rx="4" stroke="#D9BD30" stroke-width="2"/>
</g>
<path d="M24.517 41H31.9744C35.8949 41 37.983 38.9545 37.983 36.1761C37.983 33.5938 36.1335 32.0341 34.1477 31.9403V31.7699C35.9631 31.3608 37.3011 30.0739 37.3011 28.0199C37.3011 25.4034 35.358 23.5455 31.5057 23.5455H24.517V41ZM28.2074 37.983V33.3466H31.3011C33.0739 33.3466 34.1733 34.3693 34.1733 35.8097C34.1733 37.1222 33.2784 37.983 31.2159 37.983H28.2074ZM28.2074 30.8494V26.5284H31.0114C32.6477 26.5284 33.5767 27.3722 33.5767 28.6335C33.5767 30.0142 32.4517 30.8494 30.9432 30.8494H28.2074ZM44.049 41.2472C45.9837 41.2472 47.2365 40.4034 47.8757 39.1847H47.978V41H51.4212V32.1705C51.4212 29.0511 48.7791 27.7386 45.8643 27.7386C42.728 27.7386 40.6655 29.2386 40.1626 31.625L43.5206 31.8977C43.7678 31.0284 44.5433 30.3892 45.8473 30.3892C47.0831 30.3892 47.7905 31.0114 47.7905 32.0852V32.1364C47.7905 32.9801 46.8956 33.0909 44.62 33.3125C42.0291 33.5511 39.7024 34.4205 39.7024 37.3438C39.7024 39.9347 41.5518 41.2472 44.049 41.2472ZM45.0888 38.7415C43.9723 38.7415 43.1712 38.2216 43.1712 37.2244C43.1712 36.2017 44.0149 35.6989 45.2933 35.5199C46.0859 35.4091 47.3814 35.2216 47.8161 34.9318V36.321C47.8161 37.6932 46.6825 38.7415 45.0888 38.7415ZM61.201 27.9091H58.7379V24.7727H55.1072V27.9091H53.3175V30.6364H55.1072V37.4545C55.0902 40.0199 56.8374 41.2898 59.4709 41.179C60.4084 41.1449 61.0732 40.9574 61.4396 40.8381L60.8686 38.1364C60.6896 38.1705 60.3061 38.2557 59.9652 38.2557C59.2408 38.2557 58.7379 37.983 58.7379 36.9773V30.6364H61.201V27.9091ZM63.5661 41H67.1967V27.9091H63.5661V41ZM65.3899 26.2216C66.4723 26.2216 67.3587 25.3949 67.3587 24.3807C67.3587 23.375 66.4723 22.5483 65.3899 22.5483C64.3161 22.5483 63.4297 23.375 63.4297 24.3807C63.4297 25.3949 64.3161 26.2216 65.3899 26.2216ZM74.929 41.2131C77.0426 41.2131 78.142 39.9943 78.6449 38.9034H78.7983V41H82.3778V23.5455H78.7557V30.108H78.6449C78.1591 29.0426 77.1108 27.7386 74.9205 27.7386C72.0483 27.7386 69.6193 29.9716 69.6193 34.4716C69.6193 38.8523 71.946 41.2131 74.929 41.2131ZM76.0795 38.3239C74.2983 38.3239 73.3267 36.7386 73.3267 34.4545C73.3267 32.1875 74.2812 30.6278 76.0795 30.6278C77.8438 30.6278 78.8324 32.1193 78.8324 34.4545C78.8324 36.7898 77.8267 38.3239 76.0795 38.3239ZM89.0959 41.2472C91.0305 41.2472 92.2834 40.4034 92.9226 39.1847H93.0249V41H96.468V32.1705C96.468 29.0511 93.826 27.7386 90.9112 27.7386C87.7749 27.7386 85.7124 29.2386 85.2095 31.625L88.5675 31.8977C88.8146 31.0284 89.5902 30.3892 90.8942 30.3892C92.13 30.3892 92.8374 31.0114 92.8374 32.0852V32.1364C92.8374 32.9801 91.9425 33.0909 89.6669 33.3125C87.076 33.5511 84.7493 34.4205 84.7493 37.3438C84.7493 39.9347 86.5987 41.2472 89.0959 41.2472ZM90.1357 38.7415C89.0192 38.7415 88.218 38.2216 88.218 37.2244C88.218 36.2017 89.0618 35.6989 90.3402 35.5199C91.1328 35.4091 92.4283 35.2216 92.8629 34.9318V36.321C92.8629 37.6932 91.7294 38.7415 90.1357 38.7415ZM108.47 33.4318C108.479 31.7443 109.484 30.7557 110.95 30.7557C112.408 30.7557 113.286 31.7102 113.277 33.3125V41H116.908V32.6648C116.908 29.6136 115.118 27.7386 112.391 27.7386C110.447 27.7386 109.041 28.6932 108.453 30.2188H108.3V27.9091H104.839V41H108.47V33.4318ZM123.502 41.2472C125.437 41.2472 126.69 40.4034 127.329 39.1847H127.431V41H130.874V32.1705C130.874 29.0511 128.232 27.7386 125.317 27.7386C122.181 27.7386 120.119 29.2386 119.616 31.625L122.974 31.8977C123.221 31.0284 123.996 30.3892 125.3 30.3892C126.536 30.3892 127.244 31.0114 127.244 32.0852V32.1364C127.244 32.9801 126.349 33.0909 124.073 33.3125C121.482 33.5511 119.156 34.4205 119.156 37.3438C119.156 39.9347 121.005 41.2472 123.502 41.2472ZM124.542 38.7415C123.425 38.7415 122.624 38.2216 122.624 37.2244C122.624 36.2017 123.468 35.6989 124.746 35.5199C125.539 35.4091 126.835 35.2216 127.269 34.9318V36.321C127.269 37.6932 126.136 38.7415 124.542 38.7415ZM139.246 45.9091H142.876V38.9034H142.987C143.49 39.9943 144.589 41.2131 146.703 41.2131C149.686 41.2131 152.013 38.8523 152.013 34.4716C152.013 29.9716 149.584 27.7386 146.712 27.7386C144.521 27.7386 143.473 29.0426 142.987 30.108H142.825V27.9091H139.246V45.9091ZM142.8 34.4545C142.8 32.1193 143.788 30.6278 145.553 30.6278C147.351 30.6278 148.305 32.1875 148.305 34.4545C148.305 36.7386 147.334 38.3239 145.553 38.3239C143.805 38.3239 142.8 36.7898 142.8 34.4545ZM160.348 41.2557C164.32 41.2557 166.791 38.5369 166.791 34.5057C166.791 30.4489 164.32 27.7386 160.348 27.7386C156.376 27.7386 153.905 30.4489 153.905 34.5057C153.905 38.5369 156.376 41.2557 160.348 41.2557ZM160.365 38.4432C158.533 38.4432 157.595 36.7642 157.595 34.4801C157.595 32.196 158.533 30.5085 160.365 30.5085C162.163 30.5085 163.101 32.196 163.101 34.4801C163.101 36.7642 162.163 38.4432 160.365 38.4432ZM169.152 41H172.783V33.5938C172.783 31.983 173.959 30.875 175.561 30.875C176.064 30.875 176.754 30.9602 177.095 31.071V27.8494C176.771 27.7727 176.32 27.7216 175.953 27.7216C174.487 27.7216 173.286 28.5739 172.808 30.1932H172.672V27.9091H169.152V41ZM186.592 27.9091H184.129V24.7727H180.498V27.9091H178.708V30.6364H180.498V37.4545C180.481 40.0199 182.228 41.2898 184.862 41.179C185.799 41.1449 186.464 40.9574 186.83 40.8381L186.259 38.1364C186.08 38.1705 185.697 38.2557 185.356 38.2557C184.631 38.2557 184.129 37.983 184.129 36.9773V30.6364H186.592V27.9091ZM192.69 41.2472C194.624 41.2472 195.877 40.4034 196.516 39.1847H196.619V41H200.062V32.1705C200.062 29.0511 197.42 27.7386 194.505 27.7386C191.369 27.7386 189.306 29.2386 188.803 31.625L192.161 31.8977C192.408 31.0284 193.184 30.3892 194.488 30.3892C195.724 30.3892 196.431 31.0114 196.431 32.0852V32.1364C196.431 32.9801 195.536 33.0909 193.261 33.3125C190.67 33.5511 188.343 34.4205 188.343 37.3438C188.343 39.9347 190.192 41.2472 192.69 41.2472ZM193.729 38.7415C192.613 38.7415 191.812 38.2216 191.812 37.2244C191.812 36.2017 192.656 35.6989 193.934 35.5199C194.727 35.4091 196.022 35.2216 196.457 34.9318V36.321C196.457 37.6932 195.323 38.7415 193.729 38.7415Z" fill="#666665"/>
<path d="M24.233 106H25.4659V102.023H27.6932C27.7827 102.023 27.8672 102.023 27.9517 102.018L30.0994 106H31.5312L29.2294 101.794C30.527 101.352 31.1335 100.293 31.1335 98.9403C31.1335 97.1406 30.0597 95.8182 27.6733 95.8182H24.233V106ZM25.4659 100.909V96.9119H27.6335C29.2841 96.9119 29.9205 97.7173 29.9205 98.9403C29.9205 100.163 29.2841 100.909 27.6534 100.909H25.4659ZM37.8414 102.878C37.8414 104.31 36.7477 104.966 35.8727 104.966C34.8983 104.966 34.2022 104.25 34.2022 103.136V98.3636H33.0289V103.216C33.0289 105.165 34.063 106.099 35.4949 106.099C36.6483 106.099 37.4039 105.483 37.7619 104.707H37.8414V106H39.0147V98.3636H37.8414V102.878ZM43.4109 106.179C44.7433 106.179 45.4393 105.463 45.6779 104.966H45.7376V106H46.9109V100.969C46.9109 98.5426 45.0614 98.2642 44.087 98.2642C42.9336 98.2642 41.6211 98.6619 41.0245 100.054L42.1381 100.452C42.3967 99.8949 43.0082 99.2983 44.1268 99.2983C45.2056 99.2983 45.7376 99.87 45.7376 100.849V100.889C45.7376 101.456 45.1609 101.406 43.7688 101.585C42.3519 101.769 40.8058 102.082 40.8058 103.832C40.8058 105.324 41.9592 106.179 43.4109 106.179ZM43.5898 105.125C42.6552 105.125 41.979 104.707 41.979 103.892C41.979 102.997 42.7944 102.719 43.7092 102.599C44.2063 102.54 45.5387 102.401 45.7376 102.162V103.236C45.7376 104.19 44.9819 105.125 43.5898 105.125ZM53.5666 106L54.5907 103.116H58.7072L59.7314 106H61.024L57.2853 95.8182H56.0126L52.274 106H53.5666ZM54.9785 102.023L56.6092 97.429H56.6887L58.3194 102.023H54.9785ZM67.7381 98.3636H66.4654L64.3574 104.449H64.2779L62.1699 98.3636H60.8972L63.7211 106H64.9142L67.7381 98.3636ZM69.6634 106.08C70.1555 106.08 70.5582 105.677 70.5582 105.185C70.5582 104.692 70.1555 104.29 69.6634 104.29C69.1712 104.29 68.7685 104.692 68.7685 105.185C68.7685 105.677 69.1712 106.08 69.6634 106.08ZM76.7603 106H80.4393C82.8455 106 83.8398 104.827 83.8398 103.295C83.8398 101.685 82.7262 100.81 81.7915 100.75V100.651C82.6665 100.412 83.4421 99.8352 83.4421 98.5227C83.4421 97.0312 82.4478 95.8182 80.32 95.8182H76.7603V106ZM77.9933 104.906V101.366H80.4989C81.8313 101.366 82.6665 102.261 82.6665 103.295C82.6665 104.19 82.0501 104.906 80.4393 104.906H77.9933ZM77.9933 100.293V96.9119H80.32C81.6722 96.9119 82.2688 97.6278 82.2688 98.5227C82.2688 99.5966 81.3938 100.293 80.2802 100.293H77.9933ZM85.7067 106H86.88V101.168C86.88 100.134 87.6953 99.3778 88.8089 99.3778C89.1222 99.3778 89.4453 99.4375 89.5249 99.4574V98.2642C89.3906 98.2543 89.0824 98.2443 88.9084 98.2443C87.9936 98.2443 87.1982 98.7614 86.9197 99.517H86.8402V98.3636H85.7067V106ZM93.1628 106.179C94.4952 106.179 95.1912 105.463 95.4299 104.966H95.4895V106H96.6628V100.969C96.6628 98.5426 94.8134 98.2642 93.839 98.2642C92.6855 98.2642 91.373 98.6619 90.7765 100.054L91.8901 100.452C92.1486 99.8949 92.7601 99.2983 93.8787 99.2983C94.9576 99.2983 95.4895 99.87 95.4895 100.849V100.889C95.4895 101.456 94.9128 101.406 93.5208 101.585C92.1039 101.769 90.5577 102.082 90.5577 103.832C90.5577 105.324 91.7111 106.179 93.1628 106.179ZM93.3418 105.125C92.4071 105.125 91.731 104.707 91.731 103.892C91.731 102.997 92.5463 102.719 93.4611 102.599C93.9583 102.54 95.2907 102.401 95.4895 102.162V103.236C95.4895 104.19 94.7338 105.125 93.3418 105.125ZM104.213 100.074C103.846 98.9901 103.02 98.2642 101.509 98.2642C99.8981 98.2642 98.7049 99.179 98.7049 100.472C98.7049 101.526 99.3313 102.232 100.733 102.56L102.006 102.858C102.777 103.037 103.14 103.405 103.14 103.932C103.14 104.588 102.444 105.125 101.35 105.125C100.39 105.125 99.7887 104.712 99.5799 103.892L98.4663 104.17C98.7397 105.468 99.8086 106.159 101.37 106.159C103.145 106.159 104.353 105.19 104.353 103.872C104.353 102.808 103.686 102.137 102.324 101.804L101.191 101.526C100.286 101.302 99.8782 100.999 99.8782 100.412C99.8782 99.7557 100.574 99.2784 101.509 99.2784C102.533 99.2784 102.956 99.8452 103.159 100.372L104.213 100.074ZM106.119 106H107.292V98.3636H106.119V106ZM106.715 97.0909C107.173 97.0909 107.551 96.733 107.551 96.2955C107.551 95.858 107.173 95.5 106.715 95.5C106.258 95.5 105.88 95.858 105.88 96.2955C105.88 96.733 106.258 97.0909 106.715 97.0909ZM110.614 95.8182H109.441V106H110.614V95.8182ZM120.937 106H122.229L126.763 96.9716V95.8182H120.241V96.9119H125.491V96.9915L120.937 106ZM129.208 106H130.501L135.035 96.9716V95.8182H128.512V96.9119H133.762V96.9915L129.208 106ZM139.933 106.139C141.872 106.139 143.294 104.707 143.294 102.759C143.294 100.785 141.922 99.3381 140.052 99.3381C139.366 99.3381 138.7 99.5817 138.282 99.9148H138.223L138.581 96.9119H142.836V95.8182H137.547L136.93 100.83L138.084 100.969C138.506 100.665 139.227 100.447 139.854 100.452C141.151 100.462 142.101 101.446 142.101 102.778C142.101 104.086 141.186 105.045 139.933 105.045C138.889 105.045 138.059 104.374 137.964 103.455H136.771C136.846 105.006 138.183 106.139 139.933 106.139Z" fill="#666665"/>
<path d="M24.233 138H25.4659V134.023H27.6932C27.7827 134.023 27.8672 134.023 27.9517 134.018L30.0994 138H31.5312L29.2294 133.794C30.527 133.352 31.1335 132.293 31.1335 130.94C31.1335 129.141 30.0597 127.818 27.6733 127.818H24.233V138ZM25.4659 132.909V128.912H27.6335C29.2841 128.912 29.9205 129.717 29.9205 130.94C29.9205 132.163 29.2841 132.909 27.6534 132.909H25.4659ZM36.1486 138.159C37.6998 138.159 38.8333 137.384 39.1912 136.23L38.0577 135.912C37.7594 136.707 37.0684 137.105 36.1486 137.105C34.7715 137.105 33.8219 136.215 33.7672 134.58H39.3105V134.082C39.3105 131.239 37.6202 130.264 36.0293 130.264C33.9611 130.264 32.589 131.895 32.589 134.241C32.589 136.588 33.9412 138.159 36.1486 138.159ZM33.7672 133.565C33.8468 132.377 34.687 131.318 36.0293 131.318C37.302 131.318 38.1174 132.273 38.1174 133.565H33.7672ZM42.2686 133.406C42.2686 132.074 43.0939 131.318 44.2175 131.318C45.3063 131.318 45.9675 132.029 45.9675 133.227V138H47.1408V133.148C47.1408 131.199 46.1017 130.264 44.5556 130.264C43.4022 130.264 42.6863 130.781 42.3283 131.557H42.2289V130.364H41.0953V138H42.2686V133.406ZM51.532 138.179C52.8643 138.179 53.5604 137.463 53.799 136.966H53.8587V138H55.032V132.969C55.032 130.543 53.1825 130.264 52.2081 130.264C51.0547 130.264 49.7422 130.662 49.1456 132.054L50.2592 132.452C50.5178 131.895 51.1293 131.298 52.2479 131.298C53.3267 131.298 53.8587 131.87 53.8587 132.849V132.889C53.8587 133.456 53.282 133.406 51.8899 133.585C50.473 133.769 48.9268 134.082 48.9268 135.832C48.9268 137.324 50.0803 138.179 51.532 138.179ZM51.7109 137.125C50.7763 137.125 50.1001 136.707 50.1001 135.892C50.1001 134.997 50.9155 134.719 51.8303 134.599C52.3274 134.54 53.6598 134.401 53.8587 134.162V135.236C53.8587 136.19 53.103 137.125 51.7109 137.125ZM61.986 134.878C61.986 136.31 60.8922 136.966 60.0172 136.966C59.0428 136.966 58.3468 136.25 58.3468 135.136V130.364H57.1735V135.216C57.1735 137.165 58.2076 138.099 59.6394 138.099C60.7928 138.099 61.5485 137.483 61.9064 136.707H61.986V138H63.1593V130.364H61.986V134.878ZM66.4815 127.818H65.3082V138H66.4815V127.818ZM71.9515 130.364H70.3208V128.534H69.1475V130.364H67.9941V131.358H69.1475V136.131C69.1475 137.463 70.2214 138.099 71.2157 138.099C71.6532 138.099 71.9316 138.02 72.0907 137.96L71.8521 136.906C71.7527 136.926 71.5936 136.966 71.335 136.966C70.818 136.966 70.3208 136.807 70.3208 135.812V131.358H71.9515V130.364ZM82.0289 133.088H77.5744V134.182H82.0289V133.088ZM88.19 138H89.4229V134.699L90.6957 133.267L94.2354 138H95.7269L91.4513 132.412L95.7269 127.818H94.1161L89.5423 132.869H89.4229V127.818H88.19V138ZM98.0188 138H99.1722L100.843 132.134H100.962L102.632 138H103.786L106.113 130.364H104.88L103.229 136.19H103.15L101.539 130.364H100.286L98.6552 136.21H98.5756L96.9251 130.364H95.6921L98.0188 138ZM107.664 138H108.837V130.364H107.664V138ZM108.26 129.091C108.718 129.091 109.096 128.733 109.096 128.295C109.096 127.858 108.718 127.5 108.26 127.5C107.803 127.5 107.425 127.858 107.425 128.295C107.425 128.733 107.803 129.091 108.26 129.091ZM113.869 138.159C115.341 138.159 115.838 137.244 116.097 136.827H116.236V138H117.369V127.818H116.196V131.577H116.097C115.838 131.179 115.381 130.264 113.889 130.264C111.96 130.264 110.628 131.795 110.628 134.202C110.628 136.628 111.96 138.159 113.869 138.159ZM114.029 137.105C112.557 137.105 111.801 135.812 111.801 134.182C111.801 132.571 112.537 131.318 114.029 131.318C115.46 131.318 116.216 132.472 116.216 134.182C116.216 135.912 115.441 137.105 114.029 137.105Z" fill="#666665"/>
<path d="M24.233 75H27.9119C30.3182 75 31.3125 73.8267 31.3125 72.2955C31.3125 70.6847 30.1989 69.8097 29.2642 69.75V69.6506C30.1392 69.4119 30.9148 68.8352 30.9148 67.5227C30.9148 66.0312 29.9205 64.8182 27.7926 64.8182H24.233V75ZM25.4659 73.9062V70.3665H27.9716C29.304 70.3665 30.1392 71.2614 30.1392 72.2955C30.1392 73.1903 29.5227 73.9062 27.9119 73.9062H25.4659ZM25.4659 69.2926V65.9119H27.7926C29.1449 65.9119 29.7415 66.6278 29.7415 67.5227C29.7415 68.5966 28.8665 69.2926 27.7528 69.2926H25.4659ZM35.4265 75.179C36.7589 75.179 37.4549 74.4631 37.6935 73.9659H37.7532V75H38.9265V69.9688C38.9265 67.5426 37.0771 67.2642 36.1026 67.2642C34.9492 67.2642 33.6367 67.6619 33.0401 69.054L34.1538 69.4517C34.4123 68.8949 35.0238 68.2983 36.1424 68.2983C37.2212 68.2983 37.7532 68.87 37.7532 69.8494V69.8892C37.7532 70.456 37.1765 70.4062 35.7844 70.5852C34.3675 70.7692 32.8214 71.0824 32.8214 72.8324C32.8214 74.3239 33.9748 75.179 35.4265 75.179ZM35.6055 74.125C34.6708 74.125 33.9947 73.7074 33.9947 72.892C33.9947 71.9972 34.81 71.7188 35.7248 71.5994C36.2219 71.5398 37.5543 71.4006 37.7532 71.1619V72.2358C37.7532 73.1903 36.9975 74.125 35.6055 74.125ZM44.389 67.3636H42.7583V65.5341H41.585V67.3636H40.4316V68.358H41.585V73.1307C41.585 74.4631 42.6589 75.0994 43.6532 75.0994C44.0907 75.0994 44.3691 75.0199 44.5282 74.9602L44.2896 73.9062C44.1902 73.9261 44.0311 73.9659 43.7725 73.9659C43.2555 73.9659 42.7583 73.8068 42.7583 72.8125V68.358H44.389V67.3636ZM46.1539 75H47.3272V67.3636H46.1539V75ZM46.7505 66.0909C47.2079 66.0909 47.5858 65.733 47.5858 65.2955C47.5858 64.858 47.2079 64.5 46.7505 64.5C46.2931 64.5 45.9153 64.858 45.9153 65.2955C45.9153 65.733 46.2931 66.0909 46.7505 66.0909ZM52.3597 75.1591C53.8313 75.1591 54.3285 74.2443 54.587 73.8267H54.7262V75H55.8597V64.8182H54.6864V68.5767H54.587C54.3285 68.179 53.8711 67.2642 52.3796 67.2642C50.4506 67.2642 49.1183 68.7955 49.1183 71.2017C49.1183 73.6278 50.4506 75.1591 52.3597 75.1591ZM52.5188 74.1051C51.0472 74.1051 50.2915 72.8125 50.2915 71.1818C50.2915 69.571 51.0273 68.3182 52.5188 68.3182C53.9506 68.3182 54.7063 69.4716 54.7063 71.1818C54.7063 72.9119 53.9308 74.1051 52.5188 74.1051ZM60.4187 75.179C61.7511 75.179 62.4471 74.4631 62.6857 73.9659H62.7454V75H63.9187V69.9688C63.9187 67.5426 62.0692 67.2642 61.0948 67.2642C59.9414 67.2642 58.6289 67.6619 58.0323 69.054L59.146 69.4517C59.4045 68.8949 60.016 68.2983 61.1346 68.2983C62.2134 68.2983 62.7454 68.87 62.7454 69.8494V69.8892C62.7454 70.456 62.1687 70.4062 60.7766 70.5852C59.3597 70.7692 57.8136 71.0824 57.8136 72.8324C57.8136 74.3239 58.967 75.179 60.4187 75.179ZM60.5977 74.125C59.663 74.125 58.9869 73.7074 58.9869 72.892C58.9869 71.9972 59.8022 71.7188 60.717 71.5994C61.2141 71.5398 62.5465 71.4006 62.7454 71.1619V72.2358C62.7454 73.1903 61.9897 74.125 60.5977 74.125ZM71.171 70.4062C71.171 69.0739 71.9963 68.3182 73.1199 68.3182C74.2086 68.3182 74.8699 69.0291 74.8699 70.2273V75H76.0431V70.1477C76.0431 68.1989 75.0041 67.2642 73.4579 67.2642C72.3045 67.2642 71.5886 67.7812 71.2306 68.5568H71.1312V67.3636H69.9977V75H71.171V70.4062ZM80.4343 75.179C81.7667 75.179 82.4627 74.4631 82.7013 73.9659H82.761V75H83.9343V69.9688C83.9343 67.5426 82.0849 67.2642 81.1104 67.2642C79.957 67.2642 78.6445 67.6619 78.0479 69.054L79.1616 69.4517C79.4201 68.8949 80.0316 68.2983 81.1502 68.2983C82.229 68.2983 82.761 68.87 82.761 69.8494V69.8892C82.761 70.456 82.1843 70.4062 80.7923 70.5852C79.3754 70.7692 77.8292 71.0824 77.8292 72.8324C77.8292 74.3239 78.9826 75.179 80.4343 75.179ZM80.6133 74.125C79.6786 74.125 79.0025 73.7074 79.0025 72.892C79.0025 71.9972 79.8178 71.7188 80.7326 71.5994C81.2298 71.5398 82.5621 71.4006 82.761 71.1619V72.2358C82.761 73.1903 82.0053 74.125 80.6133 74.125ZM90.0133 77.8636H91.1866V73.8267H91.286C91.5446 74.2443 92.0417 75.1591 93.5133 75.1591C95.4224 75.1591 96.7548 73.6278 96.7548 71.2017C96.7548 68.7955 95.4224 67.2642 93.4934 67.2642C92.002 67.2642 91.5446 68.179 91.286 68.5767H91.1468V67.3636H90.0133V77.8636ZM91.1667 71.1818C91.1667 69.4716 91.9224 68.3182 93.3542 68.3182C94.8457 68.3182 95.5815 69.571 95.5815 71.1818C95.5815 72.8125 94.8258 74.1051 93.3542 74.1051C91.9423 74.1051 91.1667 72.9119 91.1667 71.1818ZM101.647 75.1591C103.715 75.1591 105.107 73.5881 105.107 71.2216C105.107 68.8352 103.715 67.2642 101.647 67.2642C99.5787 67.2642 98.1866 68.8352 98.1866 71.2216C98.1866 73.5881 99.5787 75.1591 101.647 75.1591ZM101.647 74.1051C100.076 74.1051 99.3599 72.7528 99.3599 71.2216C99.3599 69.6903 100.076 68.3182 101.647 68.3182C103.218 68.3182 103.934 69.6903 103.934 71.2216C103.934 72.7528 103.218 74.1051 101.647 74.1051ZM106.898 75H108.071V70.1676C108.071 69.1335 108.887 68.3778 110 68.3778C110.314 68.3778 110.637 68.4375 110.716 68.4574V67.2642C110.582 67.2543 110.274 67.2443 110.1 67.2443C109.185 67.2443 108.39 67.7614 108.111 68.517H108.032V67.3636H106.898V75ZM115.907 67.3636H114.276V65.5341H113.103V67.3636H111.949V68.358H113.103V73.1307C113.103 74.4631 114.176 75.0994 115.171 75.0994C115.608 75.0994 115.887 75.0199 116.046 74.9602L115.807 73.9062C115.708 73.9261 115.549 73.9659 115.29 73.9659C114.773 73.9659 114.276 73.8068 114.276 72.8125V68.358H115.907V67.3636ZM119.919 75.179C121.251 75.179 121.947 74.4631 122.186 73.9659H122.245V75H123.419V69.9688C123.419 67.5426 121.569 67.2642 120.595 67.2642C119.441 67.2642 118.129 67.6619 117.532 69.054L118.646 69.4517C118.904 68.8949 119.516 68.2983 120.635 68.2983C121.713 68.2983 122.245 68.87 122.245 69.8494V69.8892C122.245 70.456 121.669 70.4062 120.277 70.5852C118.86 70.7692 117.314 71.0824 117.314 72.8324C117.314 74.3239 118.467 75.179 119.919 75.179ZM120.098 74.125C119.163 74.125 118.487 73.7074 118.487 72.892C118.487 71.9972 119.302 71.7188 120.217 71.5994C120.714 71.5398 122.047 71.4006 122.245 71.1619V72.2358C122.245 73.1903 121.49 74.125 120.098 74.125ZM132.381 75.1591C133.853 75.1591 134.35 74.2443 134.608 73.8267H134.748V75H135.881V64.8182H134.708V68.5767H134.608C134.35 68.179 133.893 67.2642 132.401 67.2642C130.472 67.2642 129.14 68.7955 129.14 71.2017C129.14 73.6278 130.472 75.1591 132.381 75.1591ZM132.54 74.1051C131.069 74.1051 130.313 72.8125 130.313 71.1818C130.313 69.571 131.049 68.3182 132.54 68.3182C133.972 68.3182 134.728 69.4716 134.728 71.1818C134.728 72.9119 133.952 74.1051 132.54 74.1051ZM138.193 75H139.366V67.3636H138.193V75ZM138.79 66.0909C139.247 66.0909 139.625 65.733 139.625 65.2955C139.625 64.858 139.247 64.5 138.79 64.5C138.332 64.5 137.954 64.858 137.954 65.2955C137.954 65.733 138.332 66.0909 138.79 66.0909ZM143.762 75.179C145.095 75.179 145.791 74.4631 146.029 73.9659H146.089V75H147.262V69.9688C147.262 67.5426 145.413 67.2642 144.439 67.2642C143.285 67.2642 141.973 67.6619 141.376 69.054L142.49 69.4517C142.748 68.8949 143.36 68.2983 144.478 68.2983C145.557 68.2983 146.089 68.87 146.089 69.8494V69.8892C146.089 70.456 145.512 70.4062 144.12 70.5852C142.703 70.7692 141.157 71.0824 141.157 72.8324C141.157 74.3239 142.311 75.179 143.762 75.179ZM143.941 74.125C143.007 74.125 142.331 73.7074 142.331 72.892C142.331 71.9972 143.146 71.7188 144.061 71.5994C144.558 71.5398 145.89 71.4006 146.089 71.1619V72.2358C146.089 73.1903 145.333 74.125 143.941 74.125ZM150.577 70.4062C150.577 69.0739 151.403 68.3182 152.526 68.3182C153.615 68.3182 154.276 69.0291 154.276 70.2273V75H155.449V70.1477C155.449 68.1989 154.41 67.2642 152.864 67.2642C151.711 67.2642 150.995 67.7812 150.637 68.5568H150.537V67.3636H149.404V75H150.577V70.4062ZM160.914 67.3636H159.284V65.5341H158.11V67.3636H156.957V68.358H158.11V73.1307C158.11 74.4631 159.184 75.0994 160.179 75.0994C160.616 75.0994 160.895 75.0199 161.054 74.9602L160.815 73.9062C160.716 73.9261 160.556 73.9659 160.298 73.9659C159.781 73.9659 159.284 73.8068 159.284 72.8125V68.358H160.914V67.3636ZM165.799 75.1591C167.35 75.1591 168.484 74.3835 168.842 73.2301L167.708 72.9119C167.41 73.7074 166.719 74.1051 165.799 74.1051C164.422 74.1051 163.472 73.2152 163.418 71.5795H168.961V71.0824C168.961 68.2386 167.271 67.2642 165.68 67.2642C163.612 67.2642 162.239 68.8949 162.239 71.2415C162.239 73.5881 163.592 75.1591 165.799 75.1591ZM163.418 70.5653C163.497 69.3771 164.337 68.3182 165.68 68.3182C166.952 68.3182 167.768 69.2727 167.768 70.5653H163.418ZM170.746 75H171.919V67.3636H170.746V75ZM171.342 66.0909C171.8 66.0909 172.178 65.733 172.178 65.2955C172.178 64.858 171.8 64.5 171.342 64.5C170.885 64.5 170.507 64.858 170.507 65.2955C170.507 65.733 170.885 66.0909 171.342 66.0909ZM174.068 75H175.241V70.1676C175.241 69.1335 176.057 68.3778 177.17 68.3778C177.483 68.3778 177.807 68.4375 177.886 68.4574V67.2642C177.752 67.2543 177.444 67.2443 177.27 67.2443C176.355 67.2443 175.559 67.7614 175.281 68.517H175.202V67.3636H174.068V75ZM181.524 75.179C182.857 75.179 183.553 74.4631 183.791 73.9659H183.851V75H185.024V69.9688C185.024 67.5426 183.175 67.2642 182.2 67.2642C181.047 67.2642 179.734 67.6619 179.138 69.054L180.251 69.4517C180.51 68.8949 181.121 68.2983 182.24 68.2983C183.319 68.2983 183.851 68.87 183.851 69.8494V69.8892C183.851 70.456 183.274 70.4062 181.882 70.5852C180.465 70.7692 178.919 71.0824 178.919 72.8324C178.919 74.3239 180.072 75.179 181.524 75.179ZM181.703 74.125C180.768 74.125 180.092 73.7074 180.092 72.892C180.092 71.9972 180.908 71.7188 181.822 71.5994C182.32 71.5398 183.652 71.4006 183.851 71.1619V72.2358C183.851 73.1903 183.095 74.125 181.703 74.125ZM194.305 75.1591C195.856 75.1591 196.99 74.3835 197.347 73.2301L196.214 72.9119C195.916 73.7074 195.225 74.1051 194.305 74.1051C192.928 74.1051 191.978 73.2152 191.923 71.5795H197.467V71.0824C197.467 68.2386 195.776 67.2642 194.186 67.2642C192.117 67.2642 190.745 68.8949 190.745 71.2415C190.745 73.5881 192.097 75.1591 194.305 75.1591ZM191.923 70.5653C192.003 69.3771 192.843 68.3182 194.186 68.3182C195.458 68.3182 196.274 69.2727 196.274 70.5653H191.923ZM199.252 75H200.425V70.2273C200.425 69.1087 201.24 68.3182 202.155 68.3182C203.045 68.3182 203.666 68.8999 203.666 69.7699V75H204.86V70.0284C204.86 69.044 205.476 68.3182 206.55 68.3182C207.385 68.3182 208.101 68.7607 208.101 69.8892V75H209.274V69.8892C209.274 68.0945 208.31 67.2642 206.948 67.2642C205.854 67.2642 205.053 67.7663 204.661 68.5568H204.581C204.203 67.7415 203.537 67.2642 202.533 67.2642C201.539 67.2642 200.803 67.7415 200.485 68.5568H200.385V67.3636H199.252V75ZM217.604 75.179C218.937 75.179 219.633 74.4631 219.871 73.9659H219.931V75H221.104V69.9688C221.104 67.5426 219.255 67.2642 218.28 67.2642C217.127 67.2642 215.814 67.6619 215.218 69.054L216.331 69.4517C216.59 68.8949 217.202 68.2983 218.32 68.2983C219.399 68.2983 219.931 68.87 219.931 69.8494V69.8892C219.931 70.456 219.354 70.4062 217.962 70.5852C216.545 70.7692 214.999 71.0824 214.999 72.8324C214.999 74.3239 216.153 75.179 217.604 75.179ZM217.783 74.125C216.849 74.125 216.172 73.7074 216.172 72.892C216.172 71.9972 216.988 71.7188 217.903 71.5994C218.4 71.5398 219.732 71.4006 219.931 71.1619V72.2358C219.931 73.1903 219.175 74.125 217.783 74.125ZM226.348 75.1591C228.038 75.1591 229.152 74.125 229.351 72.7727H228.178C227.959 73.608 227.263 74.1051 226.348 74.1051C224.956 74.1051 224.061 72.9517 224.061 71.1818C224.061 69.4517 224.976 68.3182 226.348 68.3182C227.382 68.3182 227.999 68.9545 228.178 69.6506H229.351C229.152 68.2188 227.939 67.2642 226.328 67.2642C224.26 67.2642 222.888 68.8949 222.888 71.2216C222.888 73.5085 224.2 75.1591 226.348 75.1591ZM231.066 75H232.239V67.3636H231.066V75ZM231.663 66.0909C232.12 66.0909 232.498 65.733 232.498 65.2955C232.498 64.858 232.12 64.5 231.663 64.5C231.205 64.5 230.827 64.858 230.827 65.2955C230.827 65.733 231.205 66.0909 231.663 66.0909ZM237.272 75.1591C238.743 75.1591 239.241 74.2443 239.499 73.8267H239.638V75H240.772V64.8182H239.599V68.5767H239.499C239.241 68.179 238.783 67.2642 237.292 67.2642C235.363 67.2642 234.03 68.7955 234.03 71.2017C234.03 73.6278 235.363 75.1591 237.272 75.1591ZM237.431 74.1051C235.959 74.1051 235.204 72.8125 235.204 71.1818C235.204 69.571 235.939 68.3182 237.431 68.3182C238.863 68.3182 239.618 69.4716 239.618 71.1818C239.618 72.9119 238.843 74.1051 237.431 74.1051ZM246.285 75.1591C247.836 75.1591 248.97 74.3835 249.328 73.2301L248.194 72.9119C247.896 73.7074 247.205 74.1051 246.285 74.1051C244.908 74.1051 243.959 73.2152 243.904 71.5795H249.447V71.0824C249.447 68.2386 247.757 67.2642 246.166 67.2642C244.098 67.2642 242.726 68.8949 242.726 71.2415C242.726 73.5881 244.078 75.1591 246.285 75.1591ZM243.904 70.5653C243.983 69.3771 244.824 68.3182 246.166 68.3182C247.439 68.3182 248.254 69.2727 248.254 70.5653H243.904ZM252.405 70.4062C252.405 69.0739 253.231 68.3182 254.354 68.3182C255.443 68.3182 256.104 69.0291 256.104 70.2273V75H257.278V70.1477C257.278 68.1989 256.238 67.2642 254.692 67.2642C253.539 67.2642 252.823 67.7812 252.465 68.5568H252.366V67.3636H251.232V75H252.405V70.4062ZM262.743 67.3636H261.112V65.5341H259.939V67.3636H258.785V68.358H259.939V73.1307C259.939 74.4631 261.012 75.0994 262.007 75.0994C262.444 75.0994 262.723 75.0199 262.882 74.9602L262.643 73.9062C262.544 73.9261 262.385 73.9659 262.126 73.9659C261.609 73.9659 261.112 73.8068 261.112 72.8125V68.358H262.743V67.3636ZM267.627 75.1591C269.178 75.1591 270.312 74.3835 270.67 73.2301L269.536 72.9119C269.238 73.7074 268.547 74.1051 267.627 74.1051C266.25 74.1051 265.3 73.2152 265.246 71.5795H270.789V71.0824C270.789 68.2386 269.099 67.2642 267.508 67.2642C265.44 67.2642 264.067 68.8949 264.067 71.2415C264.067 73.5881 265.42 75.1591 267.627 75.1591ZM265.246 70.5653C265.325 69.3771 266.165 68.3182 267.508 68.3182C268.781 68.3182 269.596 69.2727 269.596 70.5653H265.246Z" fill="#666665"/>
<path d="M28.0739 169.205C25.5511 169.188 23.875 170.92 23.875 173.193C23.8807 175.386 25.4432 176.972 27.483 176.972C28.7386 176.972 29.8295 176.364 30.392 175.364H30.4716C30.4659 177.852 29.5625 179.335 27.9545 179.335C26.9489 179.335 26.2727 178.756 26.0625 177.83H23.9886C24.2273 179.756 25.75 181.159 27.9545 181.159C30.7443 181.159 32.5227 178.83 32.517 174.824C32.5114 170.585 30.3068 169.216 28.0739 169.205ZM28.0795 170.909C29.3239 170.909 30.2386 171.943 30.2386 173.131C30.2443 174.335 29.2841 175.369 28.0568 175.369C26.8182 175.369 25.9261 174.392 25.9205 173.148C25.9205 171.898 26.8466 170.909 28.0795 170.909ZM41.6392 181.153C43.1392 181.153 43.8153 180.261 44.1392 179.625H44.2642V181H46.2869V169.364H44.2244V173.716H44.1392C43.8267 173.085 43.1847 172.159 41.6449 172.159C39.6278 172.159 38.0426 173.739 38.0426 176.648C38.0426 179.523 39.5824 181.153 41.6392 181.153ZM42.2131 179.466C40.8551 179.466 40.1392 178.273 40.1392 176.636C40.1392 175.011 40.8438 173.847 42.2131 173.847C43.5369 173.847 44.2642 174.943 44.2642 176.636C44.2642 178.33 43.5256 179.466 42.2131 179.466ZM52.3423 181.17C54.3764 181.17 55.7741 180.176 56.1378 178.659L54.2173 178.443C53.9389 179.182 53.2571 179.568 52.3707 179.568C51.0412 179.568 50.1605 178.693 50.1435 177.199H56.223V176.568C56.223 173.506 54.3821 172.159 52.2344 172.159C49.7344 172.159 48.1037 173.994 48.1037 176.688C48.1037 179.426 49.7116 181.17 52.3423 181.17ZM50.1491 175.812C50.2116 174.699 51.0355 173.761 52.2628 173.761C53.4446 173.761 54.2401 174.625 54.2514 175.812H50.1491ZM71.5852 169.364H69.4886V177.295H69.3864L63.9091 169.364H62.0227V181H64.1307V173.074H64.2273L69.7102 181H71.5852V169.364ZM77.598 181.17C80.1548 181.17 81.7798 179.369 81.7798 176.67C81.7798 173.966 80.1548 172.159 77.598 172.159C75.0412 172.159 73.4162 173.966 73.4162 176.67C73.4162 179.369 75.0412 181.17 77.598 181.17ZM77.6094 179.523C76.1946 179.523 75.5014 178.261 75.5014 176.665C75.5014 175.068 76.1946 173.79 77.6094 173.79C79.0014 173.79 79.6946 175.068 79.6946 176.665C79.6946 178.261 79.0014 179.523 77.6094 179.523ZM91.0241 172.273H88.8366L86.8253 178.756H86.7344L84.7287 172.273H82.5355L85.6435 181H87.9162L91.0241 172.273ZM96.0142 181.17C98.0483 181.17 99.446 180.176 99.8097 178.659L97.8892 178.443C97.6108 179.182 96.929 179.568 96.0426 179.568C94.7131 179.568 93.8324 178.693 93.8153 177.199H99.8949V176.568C99.8949 173.506 98.054 172.159 95.9062 172.159C93.4062 172.159 91.7756 173.994 91.7756 176.688C91.7756 179.426 93.3835 181.17 96.0142 181.17ZM93.821 175.812C93.8835 174.699 94.7074 173.761 95.9347 173.761C97.1165 173.761 97.9119 174.625 97.9233 175.812H93.821ZM101.635 181H103.692V175.693C103.692 174.619 104.408 173.892 105.294 173.892C106.163 173.892 106.76 174.477 106.76 175.375V181H108.777V175.557C108.777 174.574 109.362 173.892 110.357 173.892C111.186 173.892 111.845 174.381 111.845 175.46V181H113.908V175.142C113.908 173.193 112.783 172.159 111.18 172.159C109.913 172.159 108.947 172.784 108.561 173.756H108.47C108.135 172.767 107.288 172.159 106.112 172.159C104.942 172.159 104.067 172.761 103.703 173.756H103.601V172.273H101.635V181ZM116.085 181H118.108V179.625H118.227C118.551 180.261 119.227 181.153 120.727 181.153C122.784 181.153 124.324 179.523 124.324 176.648C124.324 173.739 122.739 172.159 120.722 172.159C119.182 172.159 118.54 173.085 118.227 173.716H118.142V169.364H116.085V181ZM118.102 176.636C118.102 174.943 118.83 173.847 120.153 173.847C121.523 173.847 122.227 175.011 122.227 176.636C122.227 178.273 121.511 179.466 120.153 179.466C118.841 179.466 118.102 178.33 118.102 176.636ZM126.072 181H128.129V175.869C128.129 174.761 128.964 173.977 130.095 173.977C130.442 173.977 130.874 174.04 131.05 174.097V172.205C130.862 172.17 130.538 172.148 130.311 172.148C129.311 172.148 128.476 172.716 128.158 173.727H128.067V172.273H126.072V181ZM135.864 181.17C138.42 181.17 140.045 179.369 140.045 176.67C140.045 173.966 138.42 172.159 135.864 172.159C133.307 172.159 131.682 173.966 131.682 176.67C131.682 179.369 133.307 181.17 135.864 181.17ZM135.875 179.523C134.46 179.523 133.767 178.261 133.767 176.665C133.767 175.068 134.46 173.79 135.875 173.79C137.267 173.79 137.96 175.068 137.96 176.665C137.96 178.261 137.267 179.523 135.875 179.523Z" fill="#D9BD30"/>
<rect x="219.5" y="160.5" width="76" height="29" rx="4.5" stroke="#9E9EA7"/>
<path d="M234.719 174.254C234.406 171.991 232.666 170.679 230.409 170.679C227.749 170.679 225.746 172.618 225.746 175.909C225.746 179.195 227.724 181.139 230.409 181.139C232.83 181.139 234.436 179.573 234.719 177.629L232.86 177.619C232.626 178.812 231.652 179.484 230.434 179.484C228.783 179.484 227.6 178.246 227.6 175.909C227.6 173.612 228.773 172.335 230.439 172.335C231.677 172.335 232.646 173.036 232.86 174.254H234.719ZM238.526 181.154C239.725 181.154 240.441 180.592 240.769 179.951H240.828V181H242.558V175.889C242.558 173.871 240.913 173.264 239.456 173.264C237.85 173.264 236.617 173.98 236.22 175.372L237.9 175.611C238.079 175.089 238.586 174.641 239.466 174.641C240.301 174.641 240.759 175.069 240.759 175.82V175.849C240.759 176.366 240.217 176.391 238.869 176.536C237.388 176.695 235.971 177.137 235.971 178.857C235.971 180.359 237.07 181.154 238.526 181.154ZM238.994 179.832C238.243 179.832 237.706 179.489 237.706 178.827C237.706 178.136 238.308 177.848 239.113 177.734C239.585 177.669 240.53 177.55 240.764 177.361V178.261C240.764 179.111 240.078 179.832 238.994 179.832ZM246.168 176.526C246.168 175.422 246.834 174.786 247.784 174.786C248.713 174.786 249.27 175.397 249.27 176.416V181H251.07V176.138C251.075 174.308 250.031 173.264 248.455 173.264C247.311 173.264 246.526 173.811 246.178 174.661H246.088V173.364H244.368V181H246.168V176.526ZM256.23 181.149C258.149 181.149 259.372 180.011 259.502 178.39H257.781C257.627 179.21 257.036 179.683 256.245 179.683C255.122 179.683 254.396 178.743 254.396 177.182C254.396 175.641 255.137 174.716 256.245 174.716C257.11 174.716 257.642 175.273 257.781 176.009H259.502C259.377 174.353 258.085 173.264 256.22 173.264C253.983 173.264 252.571 174.88 252.571 177.212C252.571 179.523 253.948 181.149 256.23 181.149ZM264.36 181.149C266.14 181.149 267.363 180.279 267.681 178.952L266.001 178.763C265.757 179.409 265.161 179.747 264.385 179.747C263.222 179.747 262.451 178.982 262.436 177.674H267.756V177.122C267.756 174.442 266.145 173.264 264.266 173.264C262.078 173.264 260.651 174.87 260.651 177.227C260.651 179.623 262.058 181.149 264.36 181.149ZM262.441 176.461C262.496 175.487 263.217 174.666 264.29 174.666C265.325 174.666 266.021 175.422 266.031 176.461H262.441ZM271.078 170.818H269.278V181H271.078V170.818ZM275.126 181.154C276.324 181.154 277.04 180.592 277.368 179.951H277.428V181H279.158V175.889C279.158 173.871 277.512 173.264 276.056 173.264C274.45 173.264 273.217 173.98 272.819 175.372L274.5 175.611C274.679 175.089 275.186 174.641 276.066 174.641C276.901 174.641 277.358 175.069 277.358 175.82V175.849C277.358 176.366 276.816 176.391 275.469 176.536C273.988 176.695 272.571 177.137 272.571 178.857C272.571 180.359 273.669 181.154 275.126 181.154ZM275.593 179.832C274.843 179.832 274.306 179.489 274.306 178.827C274.306 178.136 274.907 177.848 275.713 177.734C276.185 177.669 277.13 177.55 277.363 177.361V178.261C277.363 179.111 276.677 179.832 275.593 179.832ZM280.968 181H282.767V176.511C282.767 175.541 283.498 174.855 284.488 174.855C284.791 174.855 285.169 174.91 285.323 174.96V173.304C285.159 173.274 284.875 173.254 284.676 173.254C283.801 173.254 283.071 173.751 282.792 174.636H282.713V173.364H280.968V181Z" fill="#666665"/>
<rect x="160.5" y="160.5" width="48" height="29" rx="4.5" stroke="#9E9EA7"/>
<path d="M167.004 170.818V181H168.774V173.99H168.869L171.683 180.97H173.005L175.819 174.005H175.913V181H177.683V170.818H175.426L172.403 178.196H172.284L169.261 170.818H167.004ZM181.81 181.154C183.008 181.154 183.724 180.592 184.052 179.951H184.112V181H185.842V175.889C185.842 173.871 184.196 173.264 182.739 173.264C181.134 173.264 179.901 173.98 179.503 175.372L181.183 175.611C181.362 175.089 181.869 174.641 182.749 174.641C183.585 174.641 184.042 175.069 184.042 175.82V175.849C184.042 176.366 183.5 176.391 182.153 176.536C180.671 176.695 179.254 177.137 179.254 178.857C179.254 180.359 180.353 181.154 181.81 181.154ZM182.277 179.832C181.526 179.832 180.989 179.489 180.989 178.827C180.989 178.136 181.591 177.848 182.396 177.734C182.869 177.669 183.813 177.55 184.047 177.361V178.261C184.047 179.111 183.361 179.832 182.277 179.832ZM187.651 183.864H189.451V179.797H189.526C189.809 180.354 190.401 181.134 191.713 181.134C193.513 181.134 194.86 179.707 194.86 177.192C194.86 174.646 193.473 173.264 191.708 173.264C190.361 173.264 189.799 174.075 189.526 174.626H189.421V173.364H187.651V183.864ZM189.416 177.182C189.416 175.7 190.053 174.741 191.211 174.741C192.409 174.741 193.026 175.76 193.026 177.182C193.026 178.614 192.399 179.658 191.211 179.658C190.062 179.658 189.416 178.663 189.416 177.182ZM202.437 175.382C202.188 174.089 201.154 173.264 199.364 173.264C197.525 173.264 196.272 174.169 196.277 175.581C196.272 176.695 196.958 177.43 198.425 177.734L199.727 178.007C200.428 178.161 200.756 178.445 200.756 178.877C200.756 179.399 200.19 179.792 199.335 179.792C198.509 179.792 197.972 179.434 197.818 178.748L196.063 178.917C196.287 180.319 197.465 181.149 199.339 181.149C201.249 181.149 202.596 180.16 202.601 178.713C202.596 177.624 201.895 176.958 200.453 176.645L199.151 176.366C198.375 176.192 198.067 175.924 198.072 175.482C198.067 174.964 198.638 174.607 199.389 174.607C200.219 174.607 200.657 175.059 200.796 175.561L202.437 175.382Z" fill="#666665"/>
<path d="M179 125C179 122.239 181.239 120 184 120H288C290.761 120 293 122.239 293 125V150C293 152.761 290.761 155 288 155H179V125Z" fill="#181817" fill-opacity="0.93"/>
<path d="M197.426 135C197.048 132.912 195.378 131.679 193.33 131.679C190.724 131.679 188.835 133.688 188.835 136.909C188.835 140.131 190.724 142.139 193.33 142.139C195.378 142.139 197.048 140.906 197.426 138.818H196.193C195.895 140.23 194.682 140.986 193.33 140.986C191.48 140.986 190.028 139.554 190.028 136.909C190.028 134.264 191.48 132.832 193.33 132.832C194.682 132.832 195.895 133.588 196.193 135H197.426ZM200.433 131.818H199.259V142H200.433V131.818ZM202.582 142H203.755V134.364H202.582V142ZM203.178 133.091C203.636 133.091 204.013 132.733 204.013 132.295C204.013 131.858 203.636 131.5 203.178 131.5C202.721 131.5 202.343 131.858 202.343 132.295C202.343 132.733 202.721 133.091 203.178 133.091ZM209.006 142.159C210.697 142.159 211.81 141.125 212.009 139.773H210.836C210.617 140.608 209.921 141.105 209.006 141.105C207.614 141.105 206.719 139.952 206.719 138.182C206.719 136.452 207.634 135.318 209.006 135.318C210.04 135.318 210.657 135.955 210.836 136.651H212.009C211.81 135.219 210.597 134.264 208.986 134.264C206.918 134.264 205.546 135.895 205.546 138.222C205.546 140.509 206.858 142.159 209.006 142.159ZM213.724 142H214.898V139.141L215.718 138.381L218.577 142H220.068L216.603 137.625L219.829 134.364H218.378L215.037 137.764H214.898V131.818H213.724V142ZM228.479 142.159C230.03 142.159 231.163 141.384 231.521 140.23L230.388 139.912C230.089 140.707 229.398 141.105 228.479 141.105C227.102 141.105 226.152 140.215 226.097 138.58H231.641V138.082C231.641 135.239 229.95 134.264 228.359 134.264C226.291 134.264 224.919 135.895 224.919 138.241C224.919 140.588 226.271 142.159 228.479 142.159ZM226.097 137.565C226.177 136.377 227.017 135.318 228.359 135.318C229.632 135.318 230.447 136.273 230.447 137.565H226.097ZM233.425 142H234.599V137.227C234.599 136.109 235.414 135.318 236.329 135.318C237.219 135.318 237.84 135.9 237.84 136.77V142H239.033V137.028C239.033 136.044 239.65 135.318 240.724 135.318C241.559 135.318 242.275 135.761 242.275 136.889V142H243.448V136.889C243.448 135.094 242.484 134.264 241.121 134.264C240.028 134.264 239.227 134.766 238.835 135.557H238.755C238.377 134.741 237.711 134.264 236.707 134.264C235.712 134.264 234.977 134.741 234.658 135.557H234.559V134.364H233.425V142ZM249.69 131.818V142H250.843V134.264H250.943L254.125 142H255.238L258.42 134.264H258.52V142H259.673V131.818H258.201L254.741 140.27H254.622L251.162 131.818H249.69ZM264.233 142.179C265.566 142.179 266.262 141.463 266.5 140.966H266.56V142H267.733V136.969C267.733 134.543 265.884 134.264 264.909 134.264C263.756 134.264 262.443 134.662 261.847 136.054L262.96 136.452C263.219 135.895 263.83 135.298 264.949 135.298C266.028 135.298 266.56 135.87 266.56 136.849V136.889C266.56 137.456 265.983 137.406 264.591 137.585C263.174 137.769 261.628 138.082 261.628 139.832C261.628 141.324 262.781 142.179 264.233 142.179ZM264.412 141.125C263.477 141.125 262.801 140.707 262.801 139.892C262.801 138.997 263.617 138.719 264.531 138.599C265.029 138.54 266.361 138.401 266.56 138.162V139.236C266.56 140.19 265.804 141.125 264.412 141.125ZM269.875 144.864H271.048V140.827H271.147C271.406 141.244 271.903 142.159 273.375 142.159C275.284 142.159 276.616 140.628 276.616 138.202C276.616 135.795 275.284 134.264 273.355 134.264C271.863 134.264 271.406 135.179 271.147 135.577H271.008V134.364H269.875V144.864ZM271.028 138.182C271.028 136.472 271.784 135.318 273.216 135.318C274.707 135.318 275.443 136.571 275.443 138.182C275.443 139.812 274.687 141.105 273.216 141.105C271.804 141.105 271.028 139.912 271.028 138.182ZM283.815 136.074C283.447 134.99 282.622 134.264 281.11 134.264C279.5 134.264 278.306 135.179 278.306 136.472C278.306 137.526 278.933 138.232 280.335 138.56L281.608 138.858C282.378 139.037 282.741 139.405 282.741 139.932C282.741 140.588 282.045 141.125 280.951 141.125C279.992 141.125 279.39 140.712 279.181 139.892L278.068 140.17C278.341 141.468 279.41 142.159 280.971 142.159C282.746 142.159 283.954 141.19 283.954 139.872C283.954 138.808 283.288 138.137 281.926 137.804L280.792 137.526C279.887 137.302 279.48 136.999 279.48 136.412C279.48 135.756 280.176 135.278 281.11 135.278C282.135 135.278 282.557 135.845 282.761 136.372L283.815 136.074Z" fill="white"/>
<defs>
<filter id="filter0_d_1338_266" x="0" y="0" width="308" height="208" filterUnits="userSpaceOnUse" color-interpolation-filters="sRGB">
<feFlood flood-opacity="0" result="BackgroundImageFix"/>
<feColorMatrix in="SourceAlpha" type="matrix" values="0 0 0 0 0 0 0 0 0 0 0 0 0 0 0 0 0 0 127 0" result="hardAlpha"/>
<feOffset dy="4"/>
<feGaussianBlur stdDeviation="2"/>
<feComposite in2="hardAlpha" operator="out"/>
<feColorMatrix type="matrix" values="0 0 0 0 0 0 0 0 0 0 0 0 0 0 0 0 0 0 0.25 0"/>
<feBlend mode="normal" in2="BackgroundImageFix" result="effect1_dropShadow_1338_266"/>
<feBlend mode="normal" in="SourceGraphic" in2="effect1_dropShadow_1338_266" result="shape"/>
</filter>
</defs>
</svg>
